<svg id="eszEqluZBoI1" xmlns="http://www.w3.org/2000/svg" xmlns:xlink="http://www.w3.org/1999/xlink" viewBox="0 0 400 300" shape-rendering="geometricPrecision" text-rendering="geometricPrecision"><path d="M223.49,183.141h-37.73v9.57h37.73v-9.57Z" fill="#15151d"/><path d="M113.64,145.2c0,0-1.33,31.69,2.23,42.13h16.26c.837.002,1.652.272,2.325.77.673.499,1.169,1.2,1.415,2l.88,2.91h-41.3504c-3.1067-2.046-5.7225-4.754-7.66-7.93-2.74-4.88-1.06-39.88-1.06-39.88h26.9604Z" fill="#15151d"/><path d="M136.75,193.51h-41.35c-.0942-.002-.1867-.026-.27-.07-3.1797-2.088-5.8544-4.859-7.8299-8.11-2.81-5-1.1901-38.72-1.1201-40.15.0052-.129.0602-.251.1534-.34.0932-.09.2174-.14.3466-.14h27c.068,0,.135.014.197.042.062.027.118.068.163.118.049.048.087.106.111.17s.034.132.029.2c0,.31-1.26,31,2.09,41.6h15.9c.946-.004,1.868.299,2.627.863.759.565,1.315,1.36,1.583,2.267l.88,2.91c.024.074.03.152.018.229-.012.076-.042.149-.088.211-.051.067-.118.121-.195.156s-.161.05-.245.044Zm-41.21-1h40.53l-.68-2.26c-.209-.701-.64-1.316-1.228-1.752-.587-.436-1.3-.67-2.032-.668h-16.26c-.104.001-.206-.032-.291-.093-.084-.061-.147-.147-.179-.247-3.35-9.79-2.44-37.49-2.28-41.79h-26c-.58,12.2-1.0899,35.42,1,39.14c1.8877,3.065,4.4196,5.682,7.42,7.67Z" fill="#e5e7eb"/><path d="M88.6594,179c0,6.6,2,8.58,4.62,8.58h10.3796c.714.002,1.41.222,1.995.632.585.409,1.03.988,1.275,1.658l1.15,3.13h-15.9996c-4.09,0-7-6.21-7.13-12.81s0-35,0-35h3.57c0,0,.14,27.21.14,33.81Z" fill="#e5e7eb"/><path d="M108.079,193.511h-15.9996c-4.61,0-7.5-6.76-7.63-13.3s0-34.72,0-35c.0025-.132.056-.258.1493-.351s.2189-.147.3507-.149h3.57c.1318.002.2575.056.3507.149s.1467.219.1493.351c0,.27.13,27.28.13,33.81c0,8.08,3.1,8.08,4.12,8.08h10.3796c.817.003,1.612.255,2.281.724.669.468,1.178,1.13,1.459,1.896l1.15,3.13c.025.076.033.157.022.237-.01.079-.038.156-.082.223-.047.061-.107.111-.177.146-.069.035-.145.053-.223.054Zm-22.6196-47.81c0,3.83-.12,28.44,0,34.49.14,6.79,3.11,12.32,6.63,12.32h15.2696l-.9-2.46c-.205-.58-.583-1.084-1.084-1.441-.501-.358-1.1-.553-1.716-.559h-10.3796c-3.44,0-5.12-3-5.12-9.08s-.11-29.57-.13-33.31l-2.57.04Z" fill="#e5e7eb"/><path d="M144.48,71.0807l6.26,71.5403c.104.797.036,1.608-.197,2.377-.234.77-.629,1.481-1.159,2.086-.529.606-1.182,1.091-1.913,1.425-.732.334-1.527.508-2.331.512h-85.2999c-1.7084-.063-3.335-.748-4.5729-1.927-1.238-1.179-2.0017-2.77-2.1471-4.473l-6.26-71.5403c-.1052-.7979-.0391-1.6091.194-2.3794.2332-.7704.6279-1.4821,1.1578-2.0878.53-.6057,1.1831-1.0914,1.9156-1.4247.7326-.3333,1.5278-.5065,2.3326-.5081h85.2999c1.709.0622,3.335.7474,4.573,1.9264s2.002,2.7702,2.147,4.4736Z" fill="#e5e7eb"/><path d="M145.14,149.52h-85.3c-1.8331-.066-3.5787-.8-4.9084-2.063-1.3297-1.264-2.1518-2.97-2.3116-4.797L46.36,71.12c-.0936-.9003.0022-1.8102.2812-2.6713s.735-1.6543,1.3388-2.3287c.569-.6193,1.2619-1.112,2.0337-1.4462.7718-.3343,1.6053-.5025,2.4463-.4938h85.3c1.831.0582,3.577.7836,4.911,2.0396C144.004,67.4757,144.833,69.1758,145,71l6.26,71.54c.094.901-.002,1.812-.283,2.673-.281.862-.74,1.654-1.347,2.327-.567.628-1.26,1.129-2.033,1.47-.774.341-1.611.515-2.457.51ZM52.46,65.18c-.7015-.009-1.397.1297-2.0413.4071-.6444.2773-1.2232.6872-1.6987,1.2029-.5064.569-.8888,1.2372-1.1229,1.9619s-.3149,1.4904-.2371,2.2481l6.26,71.54c.1191,1.589.8189,3.079,1.966,4.186c1.1472,1.106,2.6613,1.752,4.254,1.814h85.3c.7.006,1.395-.135,2.037-.414.643-.279,1.219-.69,1.693-1.206.514-.571.901-1.243,1.137-1.974.236-.73.316-1.503.233-2.266L144,71.12c-.131-1.5794-.836-3.0561-1.982-4.1507-1.147-1.0946-2.654-1.7311-4.238-1.7893h-85.32Z" fill="#e5e7eb"/><path d="M144.77,70.7907l6,68.3003c.099.761.036,1.534-.187,2.269-.223.734-.599,1.413-1.104,1.991s-1.127,1.042-1.825,1.361c-.698.318-1.456.485-2.224.489h-81.4299c-1.6313-.06-3.1844-.714-4.3669-1.84-1.1825-1.125-1.9127-2.644-2.0531-4.27l-6-68.3003c-.101-.7614-.0384-1.5355.1835-2.2707.222-.7352.5982-1.4147,1.1036-1.9929.5054-.5783,1.1284-1.0421,1.8272-1.3605.6989-.3184,1.4577-.4841,2.2257-.4859h81.4499c1.628.0646,3.176.7209,4.354,1.8458c1.179,1.1249,1.906,2.6411,2.046,4.2642Z" fill="#15151d"/><path d="M145.399,145.7h-81.3996c-1.769-.042-3.4605-.734-4.7517-1.944s-2.0915-2.853-2.2483-4.616l-6-68.31c-.0901-.8733.0069-1.7557.2845-2.5885.2776-.8329.7295-1.597,1.3255-2.2415.5445-.5938,1.2079-1.0662,1.947-1.3867.7392-.3204,1.5375-.4817,2.343-.4733h81.4496c1.755.0595,3.427.7599,4.7,1.9686c1.274,1.2088,2.06,2.8422,2.21,4.5914l6,68.31c.093.863.001,1.736-.268,2.562-.268.825-.709,1.585-1.292,2.228-.541.603-1.205,1.084-1.946,1.411-.741.328-1.543.494-2.354.489ZM56.8994,65.18c-.6659-.0081-1.3261.1239-1.9377.3875-.6115.2636-1.1609.6528-1.6123,1.1425-.4817.5404-.846,1.175-1.0698,1.8635-.2238.6886-.3021,1.4161-.2302,2.1365l6,68.31c.1197,1.513.7927,2.928,1.8904,3.976s2.5429,1.655,4.0596,1.704h81.3996c.665.007,1.323-.126,1.933-.39.609-.263,1.157-.652,1.607-1.14.485-.539.851-1.173,1.075-1.862s.301-1.417.225-2.138l-6-68.31c-.128-1.5017-.8-2.9048-1.89-3.9453-1.091-1.0405-2.524-1.6468-4.03-1.7047l-81.4196-.03Z" fill="#e5e7eb"/><path d="M149.74,127.62l1,11.47c.099.761.036,1.535-.187,2.269-.223.735-.599,1.413-1.104,1.991s-1.127,1.042-1.825,1.361-1.456.486-2.224.489h-81.3999c-1.6313-.06-3.1845-.714-4.3669-1.839-1.1825-1.126-1.9127-2.645-2.0531-4.271l-1-11.47h93.1599Z" fill="#15151d"/><path d="M145.399,145.7h-81.3998c-1.769-.042-3.4605-.734-4.7517-1.944s-2.0915-2.853-2.2483-4.616l-1-11.47c-.0046-.069.0045-.138.0268-.203s.0574-.125.1032-.177c.0455-.054.1022-.097.1661-.126s.1335-.044.2039-.044h93.2098c.126.002.246.05.338.135s.15.2.162.325l1,11.47c.092.863.001,1.736-.268,2.562-.269.825-.709,1.585-1.292,2.228-.539.589-1.196,1.059-1.928,1.379-.732.321-1.523.485-2.322.481ZM57.0692,128.12l1,10.93c.1263,1.504.7995,2.91,1.8923,3.951c1.0927,1.041,2.5293,1.646,4.0377,1.699h81.3998c.664.007,1.323-.126,1.932-.389.61-.264,1.158-.652,1.608-1.141.485-.539.851-1.173,1.074-1.862.224-.689.301-1.417.226-2.138l-1-11-92.1698-.05Z" fill="#e5e7eb"/><path d="M106.163,139.81c1.698-1.137,2.057-3.577.802-5.449-1.254-1.872-3.647-2.467-5.345-1.329-1.697,1.138-2.0562,3.577-.802,5.449c1.255,1.872,3.648,2.467,5.345,1.329Z" fill="#15151d"/><path d="M104.25,140.88c-1.181-.042-2.306-.514-3.163-1.328-.856-.815-1.3856-1.914-1.4874-3.092-.0623-.585-.0001-1.178.1826-1.738s.4818-1.075.8778-1.512c.367-.401.816-.721,1.315-.938.5-.218,1.04-.327,1.585-.322c1.18.043,2.303.516,3.158,1.33s1.382,1.914,1.482,3.09c.069.582.016,1.172-.156,1.731-.172.56-.46,1.078-.844,1.519-.374.408-.831.731-1.339.949-.509.217-1.058.323-1.611.311Zm-.69-7.93c-.407-.004-.81.076-1.184.236-.373.16-.709.397-.986.694-.298.338-.522.733-.658,1.162s-.181.881-.132,1.328c.075.93.487,1.8,1.159,2.447.673.647,1.559,1.025,2.491,1.063.406.005.808-.076,1.181-.238.372-.162.706-.401.979-.702.299-.334.526-.727.664-1.154.137-.428.184-.879.136-1.326-.087-.92-.504-1.779-1.176-2.415-.671-.636-1.55-1.008-2.474-1.045v-.05Z" fill="#e5e7eb"/><path d="M58.0796,69.2402h79.9204c.847.0335,1.653.375,2.266.9606.613.5855.991,1.3747,1.064,2.2194L145.54,120.6c.054.396.023.8-.092,1.183-.114.383-.309.738-.571,1.04s-.586.544-.949.711c-.364.167-.758.254-1.158.256h-79.9204c-.848-.036-1.6539-.379-2.2669-.966-.6129-.588-.9909-1.378-1.0631-2.224l-4.21-48.1798c-.0525-.3954-.0202-.7976.0947-1.1796.115-.3821.3099-.7352.572-1.0361.262-.3008.5851-.5424.9478-.7087s.7566-.2534,1.1555-.2556Z" fill="#e5e7eb"/><path d="M71.5201,75.1309h-7.94c-.1326,0-.2598-.0527-.3536-.1465-.0937-.0938-.1464-.2209-.1464-.3535s.0527-.2598.1464-.3536c.0938-.0938.221-.1464.3536-.1464h7.94c.1326,0,.2598.0526.3535.1464.0938.0938.1465.221.1465.3536s-.0527.2597-.1465.3535c-.0937.0938-.2209.1465-.3535.1465Z" fill="#15151d"/><path d="M89.4193,75.1309h-15.85c-.1326,0-.2597-.0527-.3535-.1465s-.1465-.2209-.1465-.3535.0527-.2598.1465-.3536.2209-.1464.3535-.1464h15.85c.1326,0,.2598.0526.3536.1464s.1464.221.1464.3536-.0526.2597-.1464.3535-.221.1465-.3536.1465Z" fill="#faca15"/><path d="M94.9997,78.2402h-15.82c-.1326,0-.2598-.0526-.3536-.1464-.0937-.0938-.1464-.221-.1464-.3536s.0527-.2598.1464-.3535c.0938-.0938.221-.1465.3536-.1465h15.82c.1326,0,.2598.0527.3535.1465.0938.0937.1465.2209.1465.3535s-.0527.2598-.1465.3536c-.0937.0938-.2209.1464-.3535.1464Z" fill="#faca15"/><path d="M73.5093,78.2402h-7.94c-.1326,0-.2597-.0526-.3535-.1464s-.1465-.221-.1465-.3536.0527-.2598.1465-.3535c.0938-.0938.2209-.1465.3535-.1465h7.94c.1326,0,.2598.0527.3536.1465.0938.0937.1464.2209.1464.3535s-.0526.2598-.1464.3536-.221.1464-.3536.1464Z" fill="#15151d"/><path d="M75.4996,81.3408h-7.94c-.1326,0-.2598-.0527-.3536-.1464-.0938-.0938-.1464-.221-.1464-.3536s.0526-.2598.1464-.3535c.0938-.0938.221-.1465.3536-.1465h7.94c.1326,0,.2598.0527.3535.1465.0938.0937.1465.2209.1465.3535s-.0527.2598-.1465.3536c-.0937.0937-.2209.1464-.3535.1464Z" fill="#15151d"/><path d="M97.9994,81.3408h-19.85c-.1326,0-.2598-.0527-.3535-.1464-.0938-.0938-.1465-.221-.1465-.3536s.0527-.2598.1465-.3535c.0937-.0938.2209-.1465.3535-.1465h19.85c.1326,0,.2598.0527.3536.1465.0937.0937.1464.2209.1464.3535s-.0527.2598-.1464.3536c-.0938.0937-.221.1464-.3536.1464Z" fill="#faca15"/><path d="M77.4898,84.4502h-7.94c-.1326,0-.2598-.0527-.3535-.1465s-.1465-.2209-.1465-.3535.0527-.2598.1465-.3536c.0937-.0937.2209-.1464.3535-.1464h7.94c.1326,0,.2598.0527.3536.1464.0937.0938.1464.221.1464.3536s-.0527.2598-.1464.3535c-.0938.0938-.221.1465-.3536.1465Z" fill="#15151d"/><path d="M102.21,84.4502h-23.5801c-.1326,0-.2598-.0527-.3536-.1465s-.1464-.2209-.1464-.3535.0527-.2598.1464-.3536c.0938-.0937.221-.1464.3536-.1464h23.5801c.132,0,.26.0527.353.1464.094.0938.147.221.147.3536s-.053.2598-.147.3535c-.093.0938-.221.1465-.353.1465Z" fill="#faca15"/><path d="M75.5093,87.5605h-7.94c-.1326,0-.2597-.0526-.3535-.1464s-.1465-.2209-.1465-.3536.0527-.2597.1465-.3535.2209-.1465.3535-.1465h7.94c.1326,0,.2598.0527.3536.1465s.1464.2209.1464.3535-.0526.2598-.1464.3536-.221.1464-.3536.1464Z" fill="#15151d"/><path d="M89.9199,87.5605h-12.79c-.1318-.0025-.2575-.056-.3507-.1492-.0933-.0932-.1468-.2189-.1493-.3508c0-.1326.0527-.2597.1464-.3535s.221-.1465.3536-.1465h12.79c.1326,0,.2598.0527.3535.1465.0938.0938.1465.2209.1465.3535s-.0527.2598-.1465.3536c-.0937.0938-.2209.1464-.3535.1464Z" fill="#faca15"/><path d="M107.59,87.5605h-12.7804c-.1326,0-.2598-.0526-.3536-.1464s-.1464-.2209-.1464-.3536.0526-.2597.1464-.3535.221-.1465.3536-.1465h12.7804c.132,0,.259.0527.353.1465s.147.2209.147.3535-.053.2598-.147.3536-.221.1464-.353.1464Z" fill="#faca15"/><path d="M75.6392,90.6709h-7.94c-.1326,0-.2598-.0527-.3535-.1464-.0938-.0938-.1465-.221-.1465-.3536s.0527-.2598.1465-.3536c.0937-.0937.2209-.1464.3535-.1464h7.94c.1326,0,.2598.0527.3536.1464.0937.0938.1464.221.1464.3536-.0025.1318-.056.2575-.1493.3507s-.2189.1467-.3507.1493Z" fill="#15151d"/><path d="M90.0499,90.6709h-11.17c-.1326,0-.2598-.0527-.3536-.1464-.0937-.0938-.1464-.221-.1464-.3536s.0527-.2598.1464-.3536c.0938-.0937.221-.1464.3536-.1464h11.17c.1326,0,.2598.0527.3535.1464.0938.0938.1465.221.1465.3536-.0026.1318-.0561.2575-.1493.3507s-.2189.1467-.3507.1493Z" fill="#faca15"/><path d="M96.4997,90.6709h-4.57c-.1326,0-.2598-.0527-.3536-.1464-.0937-.0938-.1464-.221-.1464-.3536s.0527-.2598.1464-.3536c.0938-.0937.221-.1464.3536-.1464h4.57c.1326,0,.2598.0527.3535.1464.0938.0938.1465.221.1465.3536-.0026.1318-.0561.2575-.1493.3507s-.2189.1467-.3507.1493Z" fill="#faca15"/><path d="M75.7593,93.7705h-7.94c-.1326,0-.2597-.0527-.3535-.1464-.0938-.0938-.1465-.221-.1465-.3536.0026-.1318.0561-.2575.1493-.3507s.2189-.1467.3507-.1493h7.94c.1326,0,.2598.0527.3536.1465.0938.0937.1464.2209.1464.3535s-.0526.2598-.1464.3536c-.0938.0937-.221.1464-.3536.1464Z" fill="#15151d"/><path d="M94.1801,93.7705h-16.31c-.1326,0-.2598-.0527-.3535-.1464-.0938-.0938-.1465-.221-.1465-.3536s.0527-.2598.1465-.3535c.0937-.0938.2209-.1465.3535-.1465h16.31c.1326,0,.2598.0527.3536.1465.0937.0937.1464.2209.1464.3535s-.0527.2598-.1464.3536c-.0938.0937-.221.1464-.3536.1464Z" fill="#faca15"/><path d="M104,93.7705h-7.9004c-.1326,0-.2598-.0527-.3535-.1464-.0938-.0938-.1465-.221-.1465-.3536s.0527-.2598.1465-.3535c.0937-.0938.2209-.1465.3535-.1465h7.9004c.132,0,.259.0527.353.1465.094.0937.147.2209.147.3535s-.053.2598-.147.3536c-.094.0937-.221.1464-.353.1464Z" fill="#faca15"/><path d="M70.3001,96.8809h-4.22c-.1326,0-.2598-.0527-.3536-.1465-.0937-.0938-.1464-.2209-.1464-.3535s.0527-.2598.1464-.3536c.0938-.0938.221-.1464.3536-.1464h4.22c.1326,0,.2598.0526.3535.1464.0938.0938.1465.221.1465.3536s-.0527.2597-.1465.3535c-.0937.0938-.2209.1465-.3535.1465Z" fill="#15151d"/><path d="M92.1793,96.8809h-18.4c-.1326,0-.2598-.0527-.3536-.1465s-.1464-.2209-.1464-.3535.0527-.2598.1464-.3536.221-.1464.3536-.1464h18.4c.1326,0,.2598.0526.3536.1464.0937.0938.1464.221.1464.3536s-.0527.2597-.1464.3535c-.0938.0938-.221.1465-.3536.1465Z" fill="#faca15"/><path d="M74.15,100h-7.94c-.1326,0-.2598-.0527-.3536-.1464-.0938-.0938-.1464-.221-.1464-.3536s.0526-.2598.1464-.3536c.0938-.0937.221-.1464.3536-.1464h7.94c.1326,0,.2597.0527.3535.1464.0938.0938.1465.221.1465.3536s-.0527.2598-.1465.3536c-.0938.0937-.2209.1464-.3535.1464Z" fill="#15151d"/><path d="M83.3498,103.091h-15.84c-.1326,0-.2598-.053-.3536-.147-.0938-.093-.1464-.221-.1464-.353c0-.133.0526-.26.1464-.354.0938-.093.221-.146.3536-.146h15.84c.1326,0,.2597.053.3535.146.0938.094.1465.221.1465.354c0,.132-.0527.26-.1465.353-.0938.094-.2209.147-.3535.147Z" fill="#15151d"/><path d="M97,103.091h-11c-.1326,0-.2598-.053-.3536-.147-.0937-.093-.1464-.221-.1464-.353.0026-.132.0561-.258.1493-.351s.2189-.147.3507-.149h11c.1326,0,.2598.053.3536.146.0937.094.1464.221.1464.354c0,.132-.0527.26-.1464.353-.0938.094-.221.147-.3536.147Z" fill="#faca15"/><path d="M112.209,103.091h-13.6397c-.1326,0-.2597-.053-.3535-.147-.0938-.093-.1465-.221-.1465-.353.0026-.132.0561-.258.1493-.351s.2189-.147.3507-.149h13.6397c.133,0,.26.053.354.146.094.094.146.221.146.354c0,.132-.052.26-.146.353-.094.094-.221.147-.354.147Z" fill="#faca15"/><path d="M91.4193,106.2h-23.1c-.1326,0-.2597-.052-.3535-.146s-.1465-.221-.1465-.354c0-.132.0527-.26.1465-.353.0938-.094.2209-.147.3535-.147h23.1c.1326,0,.2598.053.3536.147.0938.093.1464.221.1464.353c0,.133-.0526.26-.1464.354s-.221.146-.3536.146Z" fill="#15151d"/><path d="M103.39,106.2h-10.39c-.1326,0-.2598-.052-.3536-.146-.0937-.094-.1464-.221-.1464-.354c0-.132.0527-.26.1464-.353.0938-.094.221-.147.3536-.147h10.39c.133,0,.26.053.354.147.093.093.146.221.146.353c0,.133-.053.26-.146.354-.094.094-.221.146-.354.146Z" fill="#faca15"/><path d="M136.049,106.2h-30.9c-.132,0-.259-.052-.353-.146s-.147-.221-.147-.354c0-.132.053-.26.147-.353.094-.094.221-.147.353-.147h30.9c.133,0,.26.053.354.147.094.093.146.221.146.353c0,.133-.052.26-.146.354s-.221.146-.354.146Z" fill="#faca15"/><path d="M79.2794,109.311h-10.92c-.1326,0-.2598-.053-.3536-.147-.0937-.094-.1464-.221-.1464-.353c0-.133.0527-.26.1464-.354.0938-.094.221-.146.3536-.146h10.92c.1326,0,.2598.052.3535.146s.1465.221.1465.354c0,.132-.0527.259-.1465.353s-.2209.147-.3535.147Z" fill="#15151d"/><path d="M89.5,109.311h-8c-.1318-.003-.2575-.057-.3507-.15s-.1467-.219-.1493-.35c0-.133.0527-.26.1464-.354.0938-.094.221-.146.3536-.146h8c.1326,0,.2598.052.3536.146.0937.094.1464.221.1464.354-.0026.131-.0561.257-.1493.35s-.2189.147-.3507.15Z" fill="#faca15"/><path d="M99.71,109.311h-8c-.1318-.003-.2575-.057-.3508-.15-.0932-.093-.1467-.219-.1492-.35c0-.133.0526-.26.1464-.354s.221-.146.3536-.146h8c.1326,0,.2597.052.354.146.093.094.146.221.146.354-.003.131-.056.257-.149.35-.0935.093-.2192.147-.351.15Z" fill="#faca15"/><path d="M87.7895,112.421h-19.31c-.1318-.003-.2575-.056-.3507-.149-.0933-.094-.1467-.219-.1493-.351c0-.133.0527-.26.1464-.354.0938-.093.221-.146.3536-.146h19.31c.1326,0,.2598.053.3535.146.0938.094.1465.221.1465.354s-.0527.26-.1465.353c-.0937.094-.2209.147-.3535.147Z" fill="#15151d"/><path d="M99.8297,112.421h-9.65c-.1326,0-.2598-.053-.3536-.147-.0937-.093-.1464-.22-.1464-.353s.0527-.26.1464-.354c.0938-.093.221-.146.3536-.146h9.65c.1326,0,.2593.053.3533.146.094.094.147.221.147.354c0,.066-.013.131-.038.191-.026.061-.062.116-.109.162-.046.047-.101.084-.162.109-.0606.025-.1257.038-.1913.038Z" fill="#faca15"/><path d="M116.909,112.421h-14.71c-.132-.003-.257-.056-.35-.149-.094-.094-.147-.219-.15-.351c0-.133.053-.26.147-.354.093-.093.221-.146.353-.146h14.71c.133,0,.26.053.354.146.094.094.146.221.146.354s-.052.26-.146.353c-.094.094-.221.147-.354.147Z" fill="#faca15"/><path d="M133.17,112.421h-14.71c-.133,0-.26-.053-.354-.147-.093-.093-.146-.22-.146-.353s.053-.26.146-.354c.094-.093.221-.146.354-.146h14.71c.133,0,.26.053.354.146.093.094.146.221.146.354-.003.132-.056.257-.149.351-.094.093-.219.146-.351.149Z" fill="#faca15"/><path d="M84.9993,115.521h-11.51c-.1327,0-.2598-.053-.3536-.147s-.1464-.221-.1464-.353c.0025-.132.056-.258.1492-.351.0933-.093.219-.147.3508-.149h11.51c.1326,0,.2597.052.3535.146s.1465.221.1465.354c0,.132-.0527.259-.1465.353s-.2209.147-.3535.147Z" fill="#15151d"/><path d="M98.6997,115.521h-11.52c-.1326,0-.2598-.053-.3536-.147-.0937-.094-.1464-.221-.1464-.353c0-.133.0527-.26.1464-.354.0938-.094.221-.146.3536-.146h11.52c.1318.002.2575.056.3507.149s.1467.219.1493.351c0,.132-.0527.259-.1465.353-.0937.094-.2209.147-.3535.147Z" fill="#faca15"/><path d="M112.47,115.521h-11.47c-.133,0-.26-.053-.354-.147-.093-.094-.146-.221-.146-.353c0-.133.053-.26.146-.354.094-.094.221-.146.354-.146h11.52c.133,0,.26.052.354.146.093.094.146.221.146.354c0,.07-.014.139-.042.203s-.07.122-.122.169-.113.083-.179.105c-.067.022-.137.03-.207.023Z" fill="#faca15"/><path d="M126.749,115.87h-11.52c-.132,0-.259-.053-.353-.146-.094-.094-.147-.221-.147-.354c0-.132.053-.26.147-.353.094-.094.221-.147.353-.147h11.52c.133,0,.26.053.354.147.094.093.146.221.146.353c0,.133-.052.26-.146.354-.094.093-.221.146-.354.146Z" fill="#faca15"/><path d="M83.2701,118.631h-7.94c-.1326,0-.2598-.053-.3536-.147-.0937-.093-.1464-.221-.1464-.353c0-.133.0527-.26.1464-.354.0938-.093.221-.146.3536-.146h7.94c.1326,0,.2598.053.3535.146.0938.094.1465.221.1465.354c0,.132-.0527.26-.1465.353-.0937.094-.2209.147-.3535.147Z" fill="#15151d"/><path d="M93.0797,118.631h-7.9401c-.1326,0-.2597-.053-.3535-.147-.0938-.093-.1465-.221-.1465-.353c0-.133.0527-.26.1465-.354.0938-.093.2209-.146.3535-.146h7.9401c.1326,0,.2597.053.3535.146.0938.094.1465.221.1465.354c0,.132-.0527.26-.1465.353-.0938.094-.2209.147-.3535.147Z" fill="#faca15"/><path d="M111.43,118.941L95,118.631c-.1326,0-.2598-.053-.3536-.147-.0937-.093-.1464-.221-.1464-.353c0-.133.0527-.26.1464-.354.0938-.093.221-.146.3536-.146l16.41.31c.066.001.13.015.191.042.06.026.114.064.16.111.045.048.081.104.105.165s.035.126.034.192c0,.126-.049.248-.136.339-.088.092-.208.146-.334.151Z" fill="#faca15"/><path d="M116.15,84.4502h-10.73c-.133,0-.26-.0527-.354-.1465-.093-.0937-.146-.2209-.146-.3535s.053-.2598.146-.3536c.094-.0937.221-.1464.354-.1464h10.73c.133,0,.26.0527.353.1464.094.0938.147.221.147.3536s-.053.2598-.147.3535c-.093.0938-.22.1465-.353.1465Z" fill="#faca15"/><path d="M124.07,84.48c-1.269.0665-2.541.0665-3.81,0-.064-.0181-.124-.0491-.176-.0911-.051-.0419-.094-.094-.125-.1529-.031-.059-.049-.1236-.054-.19s.003-.133.025-.196c.036-.1146.113-.212.216-.2745s.225-.0857.344-.0655c.54,0,7.53,0,12.14,0c.132,0,.259.0527.353.1465s.147.2209.147.3535-.053.2598-.147.3536-.221.1464-.353.1464l-8.56-.03Z" fill="#faca15"/><path d="M114.19,78.2402h-15.5904c-.1318-.0025-.2575-.056-.3507-.1492s-.1467-.219-.1493-.3508c0-.1326.0527-.2598.1465-.3535.0937-.0938.2209-.1465.3535-.1465h15.5904c.132,0,.259.0527.353.1465.094.0937.147.2209.147.3535-.003.1318-.056.2575-.15.3508-.093.0932-.219.1467-.35.1492Z" fill="#faca15"/><path d="M132.829,78.2402h-15.51c-.132,0-.259-.0526-.353-.1464s-.147-.221-.147-.3536.053-.2598.147-.3535c.094-.0938.221-.1465.353-.1465h15.51c.133,0,.26.0527.354.1465.094.0937.146.2209.146.3535s-.052.2598-.146.3536-.221.1464-.354.1464Z" fill="#faca15"/><path d="M99.6895,75.1408c-3.16,0-5.36,0-5.46,0-.0651-.0098-.1276-.0323-.1839-.0662-.0563-.034-.1054-.0787-.1444-.1316s-.0672-.1131-.083-.177-.0187-.1302-.0088-.1952c.022-.1245.0894-.2364.1892-.314s.2248-.1153.3509-.106c.55,0,13.1095,0,17.9195,0c.133,0,.26.0527.354.1465.094.0937.146.2209.146.3535s-.052.2598-.146.3536c-.094.0937-.221.1464-.354.1464l-12.5795-.01Z" fill="#faca15"/><path d="M116.519,75.1303c-.094-.0018-.186-.03-.266-.0812-.079-.0512-.143-.1235-.184-.2088-.028-.0589-.045-.1229-.048-.1883s.007-.1308.029-.1923.057-.118.101-.1659c.045-.048.099-.0866.158-.1135.13-.06.32-.16,10.88-.05.133,0,.26.0527.354.1465s.146.2209.146.3535c-.005.1327-.06.2585-.155.3515-.095.0929-.222.1461-.355.1485-3.79,0-10-.08-10.54,0h-.12Z" fill="#15151d"/><path d="M102.34,96.8809h-8.0002c-.1326,0-.2597-.0527-.3535-.1465s-.1465-.2209-.1465-.3535.0527-.2598.1465-.3536.2209-.1464.3535-.1464h8.0002c.132,0,.26.0526.353.1464.094.0938.147.221.147.3536s-.053.2597-.147.3535c-.093.0938-.221.1465-.353.1465Z" fill="#faca15"/><path d="M84.0001,100h-5.88c-.1326,0-.2598-.0527-.3535-.1464-.0938-.0938-.1465-.221-.1465-.3536s.0527-.2598.1465-.3536c.0937-.0937.2209-.1464.3535-.1464h5.88c.1326,0,.2598.0527.3536.1464.0937.0938.1464.221.1464.3536s-.0527.2598-.1464.3536c-.0938.0937-.221.1464-.3536.1464Z" fill="#faca15"/><path d="M100.319,100h-13.9997c-.1326,0-.2597-.0527-.3535-.1464-.0938-.0938-.1465-.221-.1465-.3536s.0527-.2598.1465-.3536c.0938-.0937.2209-.1464.3535-.1464h13.9997c.133,0,.26.0527.354.1464.094.0938.146.221.146.3536s-.052.2598-.146.3536c-.094.0937-.221.1464-.354.1464Z" fill="#15151d"/><path d="M130.35,100h-27.21c-.133,0-.26-.0527-.354-.1464-.094-.0938-.146-.221-.146-.3536s.052-.2598.146-.3536c.094-.0937.221-.1464.354-.1464h27.21c.132,0,.259.0527.353.1464.094.0938.147.221.147.3536s-.053.2598-.147.3536c-.094.0937-.221.1464-.353.1464Z" fill="#faca15"/><path d="M279.509,145.2c0,0,1.33,31.69-2.24,42.13h-16.27c-.836.001-1.65.271-2.322.769-.672.499-1.165,1.201-1.408,2.001l-.87,2.9h41.35c3.107-2.046,5.723-4.754,7.66-7.93c2.78-4.88,1.06-39.88,1.06-39.88l-26.96.01Z" fill="#15151d"/><path d="M297.75,193.51h-41.35c-.078.002-.155-.016-.225-.05-.07-.035-.13-.087-.175-.15s-.075-.135-.089-.211-.011-.154.009-.229l.88-2.91c.269-.906.825-1.701,1.584-2.265s1.68-.867,2.626-.865h15.9c3.36-10.56,2.11-41.29,2.1-41.6-.005-.067.004-.134.027-.198.022-.064.057-.122.103-.172.048-.05.105-.09.168-.117.064-.028.132-.042.202-.043h27c.128.002.251.053.344.142.092.089.148.21.156.338.07,1.43,1.69,35.2-1.12,40.15-1.978,3.253-4.657,6.023-7.84,8.11-.092.05-.196.074-.3.07Zm-40.68-1h40.53c2.985-1.992,5.503-4.609,7.38-7.67c2.11-3.72,1.59-26.94,1-39.14h-25.98c.16,4.3,1.06,32-2.28,41.79-.034.1-.099.187-.185.248s-.19.094-.295.092h-16.24c-.731-.003-1.444.231-2.03.667-.586.437-1.014,1.052-1.22,1.753l-.68,2.26Z" fill="#e5e7eb"/><path d="M304.489,179c0,6.6-2,8.58-4.63,8.58h-10.37c-.715,0-1.414.219-2,.629-.587.409-1.034.99-1.28,1.661l-1.14,3.13h16c4.1,0,7-6.21,7.14-12.81s0-35,0-35h-3.57c0,0-.15,27.21-.15,33.81Z" fill="#e5e7eb"/><path d="M301.05,193.51h-16c-.08.001-.16-.017-.231-.054-.072-.036-.133-.09-.179-.156-.048-.065-.079-.142-.089-.222-.011-.081-.001-.162.029-.238l1.14-3.13c.282-.768.793-1.43,1.464-1.899.67-.468,1.468-.72,2.286-.721h10.37c1,0,4.13,0,4.13-8.08c0-6.53.13-33.54.13-33.81c0-.132.053-.26.147-.353.093-.094.221-.147.353-.147h3.57c.132.003.258.056.351.149.093.094.147.219.149.351c0,.29.13,28.47,0,35s-3.01,13.31-7.62,13.31Zm-15.27-1h15.27c3.52,0,6.5-5.53,6.64-12.32.12-6.05,0-30.66,0-34.49h-2.57c0,3.74-.13,27.27-.13,33.31s-1.68,9.08-5.13,9.08h-10.37c-.617.004-1.218.198-1.721.556s-.883.862-1.089,1.444l-.9,2.42Z" fill="#e5e7eb"/><path d="M248.66,71.0802L242.41,142.62c-.101.795-.031,1.603.203,2.369.235.767.629,1.475,1.158,2.078.528.603,1.178,1.087,1.907,1.42s1.52.508,2.322.513h85.31c1.708-.062,3.335-.747,4.573-1.926s2.001-2.77,2.147-4.474l6.26-71.5398c.103-.7977.036-1.6082-.198-2.3778-.233-.7696-.628-1.4807-1.158-2.086-.529-.6053-1.182-1.091-1.914-1.4249-.731-.3338-1.526-.5081-2.33-.5113h-85.31c-1.712.0627-3.341.7507-4.579,1.9338-1.239,1.1831-2,2.7792-2.141,4.4862Z" fill="#e5e7eb"/><path d="M333.309,149.521h-85.31c-.843-.001-1.678-.179-2.448-.524-.77-.344-1.459-.847-2.022-1.476-.605-.673-1.063-1.466-1.342-2.328-.279-.861-.374-1.772-.278-2.672l6.26-71.5204c.158-1.8254.979-3.5299,2.307-4.7919c1.328-1.2619,3.072-1.994,4.903-2.0581h85.31c.84-.0073,1.671.1616,2.441.4958s1.462.8262,2.029,1.4442c.609.6716,1.067,1.4645,1.347,2.3263.279.8619.372,1.7731.273,2.6737l-6.25,71.5404c-.154,1.831-.974,3.543-2.304,4.813-1.33,1.269-3.078,2.007-4.916,2.077Zm-77.93-84.3404c-1.583.0603-3.089.6976-4.235,1.7918-1.145,1.0941-1.851,2.5696-1.985,4.1482l-6.26,71.5404c-.08.763.001,1.534.237,2.265.236.73.622,1.403,1.133,1.975.474.516,1.051.927,1.693,1.206.643.279,1.337.42,2.037.414h85.31c1.592-.064,3.105-.711,4.252-1.817s1.847-2.595,1.968-4.183l6.26-71.5204c.083-.7625.004-1.5338-.23-2.2641-.235-.7302-.619-1.4033-1.13-1.9759-.475-.5157-1.054-.9256-1.698-1.2029-.645-.2774-1.34-.4161-2.042-.4071l-85.31.03Z" fill="#e5e7eb"/><path d="M248.38,70.7907l-6,68.3003c-.098.761-.033,1.535.191,2.269.224.735.601,1.414,1.107,1.991.506.578,1.129,1.042,1.827,1.36.699.319,1.457.486,2.225.49h81.47c1.63-.06,3.182-.715,4.363-1.841c1.181-1.125,1.909-2.644,2.047-4.269l6-68.3003c.101-.7614.038-1.5355-.184-2.2707-.221-.7352-.598-1.4147-1.103-1.9929-.506-.5783-1.128-1.0421-1.827-1.3605s-1.458-.4841-2.226-.4859h-81.48c-1.63.06-3.182.7146-4.363,1.8402s-1.909,2.6443-2.047,4.2698Z" fill="#15151d"/><path d="M329.2,145.7h-81.45c-.804.008-1.601-.154-2.338-.475-.737-.32-1.399-.792-1.942-1.385-.583-.643-1.023-1.403-1.292-2.228-.269-.826-.36-1.699-.268-2.562l6-68.31c.153-1.7484.939-3.3805,2.212-4.5889c1.273-1.2083,2.944-1.9094,4.698-1.9711h81.46c.796-.0085,1.585.149,2.317.4623.731.3134,1.39.7758,1.933,1.3577.583.6431,1.024,1.4024,1.293,2.228s.36,1.6987.267,2.562l-6,68.31c-.143,1.752-.923,3.391-2.193,4.608-1.269,1.216-2.94,1.924-4.697,1.992ZM248.88,70.83l-6,68.31c-.071.72.008,1.448.232,2.136.223.688.587,1.323,1.068,1.864.451.49,1.001.879,1.612,1.142.612.264,1.272.396,1.938.388h81.47c1.506-.058,2.939-.664,4.029-1.705c1.09-1.04,1.763-2.443,1.891-3.945l6-68.31c.076-.7198.001-1.4477-.221-2.1367s-.587-1.3237-1.069-1.8633c-.452-.4896-1.001-.8789-1.612-1.1425-.612-.2635-1.272-.3956-1.938-.3875h-81.49c-1.505.0582-2.937.6648-4.025,1.7056-1.089,1.0407-1.759,2.4436-1.885,3.9444Z" fill="#e5e7eb"/><path d="M243.409,127.62l-1,11.47c-.097.762-.032,1.535.192,2.27.223.734.601,1.413,1.107,1.991.505.577,1.128,1.041,1.827,1.36.698.319,1.456.485,2.224.489h81.44c1.631-.06,3.182-.715,4.363-1.84c1.181-1.126,1.909-2.644,2.047-4.27l1-11.47h-93.2Z" fill="#15151d"/><path d="M329.2,145.7h-81.45c-.804.008-1.601-.154-2.338-.474-.737-.321-1.399-.793-1.942-1.386-.583-.643-1.023-1.403-1.292-2.228-.269-.826-.36-1.699-.268-2.562l1-11.47c.01-.125.067-.243.16-.328.092-.085.214-.132.34-.132h93.21c.07.001.139.016.203.046.064.029.121.071.167.124.046.052.081.112.103.177s.031.134.027.203l-1,11.47c-.153,1.75-.941,3.384-2.216,4.592-1.275,1.209-2.948,1.909-4.704,1.968Zm-85.33-17.58l-1,11c-.071.72.008,1.448.232,2.136.223.688.587,1.323,1.068,1.864.451.49,1.001.879,1.612,1.143.612.263,1.272.395,1.938.387h81.48c1.506-.058,2.939-.664,4.029-1.705c1.09-1.04,1.763-2.443,1.891-3.945l.95-10.93-92.2.05Z" fill="#e5e7eb"/><path d="M292.307,138.464c1.255-1.872.896-4.312-.802-5.449-1.697-1.138-4.09-.543-5.345,1.329-1.254,1.872-.895,4.312.802,5.449c1.698,1.138,4.091.543,5.345-1.329Z" fill="#15151d"/><path d="M288.899,140.88c-.544.006-1.084-.104-1.584-.321-.499-.217-.948-.537-1.316-.939-.395-.436-.694-.951-.877-1.511s-.245-1.153-.183-1.739c.102-1.177.631-2.277,1.488-3.091s1.981-1.287,3.162-1.329c.545-.005,1.085.104,1.585.322.499.217.948.537,1.315.938.394.438.692.954.874,1.513.183.56.246,1.152.186,1.737-.103,1.177-.633,2.275-1.489,3.089s-1.98,1.287-3.161,1.331Zm.69-7.93c-.932.039-1.817.417-2.49,1.064-.672.646-1.085,1.517-1.16,2.446-.05.446-.005.897.131,1.325.136.427.361.821.659,1.155.276.301.611.54.985.702s.778.243,1.185.238c.932-.04,1.816-.419,2.488-1.065.672-.647,1.085-1.516,1.162-2.445.049-.446.002-.897-.136-1.325-.137-.427-.364-.82-.664-1.155-.277-.291-.613-.521-.985-.674-.372-.154-.772-.227-1.175-.216v-.05Z" fill="#e5e7eb"/><path d="M335.06,69.2402h-79.88c-.849.0292-1.657.3693-2.271.9557s-.991,1.378-1.059,2.2243L247.63,120.6c-.053.397-.02.8.095,1.184.116.383.312.737.574,1.039.263.302.588.544.952.711.363.167.759.254,1.159.256h79.88c.849-.031,1.658-.374,2.271-.962.614-.588.991-1.38,1.059-2.228l4.22-48.1798c.052-.3963.02-.7993-.096-1.182-.115-.3828-.311-.7364-.574-1.0374s-.588-.5424-.951-.708c-.364-.1657-.759-.2518-1.159-.2526Z" fill="#e5e7eb"/><path d="M268.54,75.1309h-7.94c-.133,0-.26-.0527-.354-.1465s-.146-.2209-.146-.3535.052-.2598.146-.3536.221-.1464.354-.1464h7.94c.132,0,.259.0526.353.1464s.147.221.147.3536-.053.2597-.147.3535-.221.1465-.353.1465Z" fill="#15151d"/><path d="M286.43,75.1309h-15.84c-.133,0-.26-.0527-.354-.1465-.093-.0938-.146-.2209-.146-.3535s.053-.2598.146-.3536c.094-.0938.221-.1464.354-.1464h15.84c.132,0,.26.0526.353.1464.094.0938.147.221.147.3536s-.053.2597-.147.3535c-.093.0938-.221.1465-.353.1465Z" fill="#faca15"/><path d="M291.34,78.2402h-15.84c-.133,0-.26-.0526-.354-.1464-.093-.0938-.146-.221-.146-.3536s.053-.2598.146-.3535c.094-.0938.221-.1465.354-.1465h15.84c.133,0,.26.0527.354.1465.093.0937.146.2209.146.3535s-.053.2598-.146.3536c-.094.0938-.221.1464-.354.1464Z" fill="#faca15"/><path d="M269.83,78.2402h-7.94c-.133,0-.26-.0526-.354-.1464s-.146-.221-.146-.3536.052-.2598.146-.3535c.094-.0938.221-.1465.354-.1465h7.94c.132,0,.259.0527.353.1465.094.0937.147.2209.147.3535s-.053.2598-.147.3536-.221.1464-.353.1464Z" fill="#15151d"/><path d="M271.129,81.3408h-7.94c-.132,0-.259-.0527-.353-.1464-.094-.0938-.147-.221-.147-.3536s.053-.2598.147-.3535c.094-.0938.221-.1465.353-.1465h7.94c.132.0026.258.0561.351.1493s.147.2189.149.3507c0,.1326-.052.2598-.146.3536-.094.0937-.221.1464-.354.1464Z" fill="#15151d"/><path d="M293.61,81.3408h-19.84c-.133,0-.26-.0527-.354-.1464-.094-.0938-.146-.221-.146-.3536.002-.1318.056-.2575.149-.3507s.219-.1467.351-.1493h19.84c.132,0,.259.0527.353.1465.094.0937.147.2209.147.3535s-.053.2598-.147.3536c-.094.0937-.221.1464-.353.1464Z" fill="#faca15"/><path d="M272.419,84.4502h-7.94c-.132,0-.259-.0527-.353-.1465s-.147-.2209-.147-.3535.053-.2598.147-.3536c.094-.0937.221-.1464.353-.1464h7.94c.133,0,.26.0527.354.1464.094.0938.146.221.146.3536s-.052.2598-.146.3535-.221.1465-.354.1465Z" fill="#15151d"/><path d="M297.14,84.4502h-23.58c-.133,0-.26-.0527-.354-.1465s-.146-.2209-.146-.3535.052-.2598.146-.3536c.094-.0937.221-.1464.354-.1464h23.58c.132,0,.259.0527.353.1464.094.0938.147.221.147.3536s-.053.2598-.147.3535-.221.1465-.353.1465Z" fill="#faca15"/><path d="M269.75,87.5605h-7.94c-.133,0-.26-.0526-.354-.1464s-.146-.2209-.146-.3536.052-.2597.146-.3535.221-.1465.354-.1465h7.94c.132,0,.259.0527.353.1465s.147.2209.147.3535c-.003.1319-.057.2576-.15.3508s-.219.1467-.35.1492Z" fill="#15151d"/><path d="M284.16,87.5605h-12.79c-.132,0-.26-.0526-.353-.1464-.094-.0938-.147-.2209-.147-.3536s.053-.2597.147-.3535c.093-.0938.221-.1465.353-.1465h12.79c.133,0,.26.0527.354.1465.093.0938.146.2209.146.3535-.002.1319-.056.2576-.149.3508s-.219.1467-.351.1492Z" fill="#faca15"/><path d="M301.83,87.5605h-12.83c-.133,0-.26-.0526-.354-.1464-.093-.0938-.146-.2209-.146-.3536s.053-.2597.146-.3535c.094-.0938.221-.1465.354-.1465h12.79c.133,0,.26.0527.354.1465.093.0938.146.2209.146.3535-.002.1253-.05.2456-.135.3378-.084.0922-.2.15-.325.1622Z" fill="#faca15"/><path d="M269.179,90.6709h-7.94c-.132,0-.26-.0527-.353-.1464-.094-.0938-.147-.221-.147-.3536s.053-.2598.147-.3536c.093-.0937.221-.1464.353-.1464h7.94c.133,0,.26.0527.354.1464.094.0938.146.221.146.3536-.002.1318-.056.2575-.149.3507s-.219.1467-.351.1493Z" fill="#15151d"/><path d="M283.59,90.6709h-11.17c-.133,0-.26-.0527-.354-.1464-.093-.0938-.146-.221-.146-.3536s.053-.2598.146-.3536c.094-.0937.221-.1464.354-.1464h11.17c.133,0,.26.0527.353.1464.094.0938.147.221.147.3536-.003.1318-.056.2575-.149.3507-.094.0932-.219.1467-.351.1493Z" fill="#faca15"/><path d="M290,90.6709h-4.57c-.133,0-.26-.0527-.354-.1464-.094-.0938-.146-.221-.146-.3536s.052-.2598.146-.3536c.094-.0937.221-.1464.354-.1464h4.57c.132,0,.259.0527.353.1464.094.0938.147.221.147.3536-.003.1318-.056.2575-.15.3507-.093.0932-.218.1467-.35.1493Z" fill="#faca15"/><path d="M268.61,93.7705h-7.94c-.133,0-.26-.0527-.354-.1464-.093-.0938-.146-.221-.146-.3536s.053-.2598.146-.3535c.094-.0938.221-.1465.354-.1465h7.94c.132.0026.257.0561.351.1493.093.0932.146.2189.149.3507c0,.1326-.053.2598-.147.3536-.093.0937-.22.1464-.353.1464Z" fill="#15151d"/><path d="M287,93.7705h-16.29c-.133,0-.26-.0527-.354-.1464-.093-.0938-.146-.221-.146-.3536.003-.1318.056-.2575.149-.3507s.219-.1467.351-.1493h16.29c.132.0026.257.0561.351.1493.093.0932.146.2189.149.3507c0,.1326-.053.2598-.146.3536-.094.0937-.221.1464-.354.1464Z" fill="#faca15"/><path d="M296.89,93.7705h-7.89c-.133,0-.26-.0527-.354-.1464-.093-.0938-.146-.221-.146-.3536s.053-.2598.146-.3535c.094-.0938.221-.1465.354-.1465h7.94c.132.0026.257.0561.351.1493.093.0932.146.2189.149.3507c0,.0701-.014.1395-.042.2037s-.07.1216-.122.1688c-.052.0471-.113.0828-.179.1048-.067.022-.137.0297-.207.0227Z" fill="#faca15"/><path d="M262.449,96.8809h-4.22c-.132,0-.259-.0527-.353-.1465s-.147-.2209-.147-.3535.053-.2598.147-.3536.221-.1464.353-.1464h4.22c.133,0,.26.0526.354.1464s.146.221.146.3536-.052.2597-.146.3535-.221.1465-.354.1465Z" fill="#15151d"/><path d="M284.33,96.8809h-18.4c-.133,0-.26-.0527-.354-.1465s-.146-.2209-.146-.3535.052-.2598.146-.3536.221-.1464.354-.1464h18.4c.132,0,.259.0526.353.1464s.147.221.147.3536-.053.2597-.147.3535-.221.1465-.353.1465Z" fill="#faca15"/><path d="M265.61,100h-7.95c-.132-.0026-.257-.0561-.351-.1493-.093-.0932-.146-.2189-.149-.3507c0-.1326.053-.2598.147-.3536.093-.0937.221-.1464.353-.1464h7.95c.133,0,.26.0527.354.1464.093.0938.146.221.146.3536-.002.1318-.056.2575-.149.3507s-.219.1467-.351.1493Z" fill="#15151d"/><path d="M274.11,103.091h-15.84c-.133,0-.26-.053-.354-.147-.094-.093-.146-.221-.146-.353c0-.133.052-.26.146-.354.094-.093.221-.146.354-.146h15.84c.132,0,.259.053.353.146.094.094.147.221.147.354c0,.132-.053.26-.147.353-.094.094-.221.147-.353.147Z" fill="#15151d"/><path d="M287.76,103.091h-11c-.133,0-.26-.053-.354-.147-.094-.093-.146-.221-.146-.353.002-.132.056-.258.149-.351s.219-.147.351-.149h11c.132,0,.26.053.353.146.094.094.147.221.147.354c0,.132-.053.26-.147.353-.093.094-.221.147-.353.147Z" fill="#faca15"/><path d="M303,103.091h-13.66c-.133,0-.26-.053-.354-.147-.093-.093-.146-.221-.146-.353c0-.133.053-.26.146-.354.094-.093.221-.146.354-.146h13.66c.132,0,.26.053.353.146.094.094.147.221.147.354c0,.132-.053.26-.147.353-.093.094-.221.147-.353.147Z" fill="#faca15"/><path d="M281.49,106.2h-23.1c-.133,0-.26-.052-.354-.146s-.146-.221-.146-.354c0-.132.052-.26.146-.353.094-.094.221-.147.354-.147h23.1c.132,0,.259.053.353.147.094.093.147.221.147.353c0,.133-.053.26-.147.354s-.221.146-.353.146Z" fill="#15151d"/><path d="M293.45,106.2h-10.39c-.133,0-.26-.052-.354-.146s-.146-.221-.146-.354c0-.132.052-.26.146-.353.094-.094.221-.147.354-.147h10.39c.132,0,.259.053.353.147.094.093.147.221.147.353c0,.133-.053.26-.147.354s-.221.146-.353.146Z" fill="#faca15"/><path d="M326.11,106.2h-30.89c-.133,0-.26-.052-.354-.146s-.146-.221-.146-.354c0-.132.052-.26.146-.353.094-.094.221-.147.354-.147h30.89c.132,0,.26.053.353.147.094.093.147.221.147.353c0,.133-.053.26-.147.354-.093.094-.221.146-.353.146Z" fill="#faca15"/><path d="M268.649,109.311h-10.92c-.132,0-.259-.053-.353-.147s-.147-.221-.147-.353c0-.133.053-.26.147-.354s.221-.146.353-.146h10.92c.133,0,.26.052.354.146s.146.221.146.354c0,.132-.052.259-.146.353s-.221.147-.354.147Z" fill="#15151d"/><path d="M278.869,109.311h-8.05c-.131-.003-.257-.057-.35-.15-.094-.093-.147-.219-.15-.35c0-.133.053-.26.147-.354s.221-.146.353-.146h8.05c.133,0,.26.052.354.146s.146.221.146.354c-.002.131-.056.257-.149.35s-.219.147-.351.15Z" fill="#faca15"/><path d="M289.08,109.311h-8.08c-.132-.003-.257-.057-.351-.15-.093-.093-.146-.219-.149-.35c0-.133.053-.26.146-.354.094-.094.221-.146.354-.146h8.05c.133,0,.26.052.354.146.093.094.146.221.146.354-.002.126-.051.248-.138.34-.087.093-.206.15-.332.16Z" fill="#faca15"/><path d="M276.47,112.421h-19.31c-.132,0-.26-.053-.353-.147-.094-.093-.147-.22-.147-.353s.053-.26.147-.354c.093-.093.221-.146.353-.146h19.31c.133,0,.26.053.354.146.093.094.146.221.146.354s-.053.26-.146.353c-.094.094-.221.147-.354.147Z" fill="#15151d"/><path d="M288.51,112.421h-9.66c-.132-.003-.258-.056-.351-.149-.093-.094-.147-.219-.149-.351c0-.133.052-.26.146-.354.094-.093.221-.146.354-.146h9.66c.132,0,.259.053.353.146.094.094.147.221.147.354s-.053.26-.147.353c-.094.094-.221.147-.353.147Z" fill="#faca15"/><path d="M305.59,112.421h-14.71c-.133,0-.26-.053-.354-.147-.093-.093-.146-.22-.146-.353s.053-.26.146-.354c.094-.093.221-.146.354-.146h14.71c.132,0,.26.053.353.146.094.094.147.221.147.354s-.053.26-.147.353c-.093.094-.221.147-.353.147Z" fill="#faca15"/><path d="M321.84,112.421h-14.7c-.133,0-.26-.053-.354-.147-.094-.093-.146-.22-.146-.353s.052-.26.146-.354c.094-.093.221-.146.354-.146h14.7c.132,0,.259.053.353.146.094.094.147.221.147.354s-.053.26-.147.353c-.094.094-.221.147-.353.147Z" fill="#faca15"/><path d="M273,115.521h-11.53c-.133,0-.26-.053-.354-.147s-.146-.221-.146-.353c.002-.132.056-.258.149-.351s.219-.147.351-.149h11.53c.132,0,.26.052.353.146.094.094.147.221.147.354c0,.132-.053.259-.147.353-.093.094-.221.147-.353.147Z" fill="#15151d"/><path d="M286.68,115.521h-11.52c-.132,0-.26-.053-.353-.147-.094-.094-.147-.221-.147-.353c0-.133.053-.26.147-.354.093-.094.221-.146.353-.146h11.52c.132.002.258.056.351.149s.147.219.149.351c0,.132-.053.259-.146.353-.094.094-.221.147-.354.147Z" fill="#faca15"/><path d="M300.45,115.521h-11.52c-.133,0-.26-.053-.354-.147s-.146-.221-.146-.353c.002-.132.056-.258.149-.351s.219-.147.351-.149h11.52c.132,0,.259.052.353.146s.147.221.147.354c0,.132-.053.259-.147.353s-.221.147-.353.147Z" fill="#faca15"/><path d="M314.65,115.87h-11.52c-.133,0-.26-.053-.354-.146-.093-.094-.146-.221-.146-.354c0-.132.053-.26.146-.353.094-.094.221-.147.354-.147h11.52c.132,0,.26.053.353.147.094.093.147.221.147.353c0,.133-.053.26-.147.354-.093.093-.221.146-.353.146Z" fill="#faca15"/><path d="M270.56,118.631h-7.94c-.132,0-.26-.053-.353-.147-.094-.093-.147-.221-.147-.353c0-.133.053-.26.147-.354.093-.093.221-.146.353-.146h7.94c.133,0,.26.053.354.146.093.094.146.221.146.354c0,.132-.053.26-.146.353-.094.094-.221.147-.354.147Z" fill="#15151d"/><path d="M280.37,118.631h-7.95c-.133,0-.26-.053-.354-.147-.093-.093-.146-.221-.146-.353c0-.133.053-.26.146-.354.094-.093.221-.146.354-.146h7.95c.133,0,.26.053.353.146.094.094.147.221.147.354c0,.132-.053.26-.147.353-.093.094-.22.147-.353.147Z" fill="#faca15"/><path d="M298.65,118.941l-16.34-.31c-.066-.002-.131-.016-.191-.042-.06-.027-.114-.064-.16-.112-.045-.047-.081-.103-.105-.164s-.035-.127-.034-.192c-.003-.067.008-.134.033-.196s.062-.119.111-.165c.048-.046.106-.082.169-.104.063-.023.13-.031.197-.025l16.34.31c.131.007.254.064.345.159.091.094.143.22.145.351-.001.065-.016.13-.042.19s-.064.115-.112.16c-.047.046-.103.082-.164.105-.061.024-.127.036-.192.035Z" fill="#faca15"/><path d="M311.08,84.4502h-10.73c-.133,0-.26-.0527-.354-.1465s-.146-.2209-.146-.3535.052-.2598.146-.3536c.094-.0937.221-.1464.354-.1464h10.73c.132,0,.259.0527.353.1464.094.0938.147.221.147.3536s-.053.2598-.147.3535-.221.1465-.353.1465Z" fill="#faca15"/><path d="M319,84.4805c-1.28.0657-2.563.0457-3.84-.06-.133-.0319-.247-.1151-.319-.2313-.071-.1163-.093-.2561-.061-.3887.032-.1327.115-.2472.231-.3185s.256-.0934.389-.0615c.54,0,7.54,0,12.14,0c.132,0,.26.0526.353.1464.094.0938.147.2209.147.3536c0,.1326-.053.2597-.147.3535-.093.0938-.221.1465-.353.1465l-8.54.06Z" fill="#faca15"/><path d="M310.51,78.2402h-15.59c-.132-.0025-.258-.056-.351-.1492s-.147-.219-.149-.3508c0-.1326.053-.2598.146-.3535.094-.0938.221-.1465.354-.1465h15.59c.133,0,.26.0527.353.1465.094.0937.147.2209.147.3535-.003.1318-.056.2575-.149.3508-.094.0932-.219.1467-.351.1492Z" fill="#faca15"/><path d="M329.15,78.2402h-15.51c-.133,0-.26-.0526-.354-.1464s-.146-.221-.146-.3536.052-.2598.146-.3535c.094-.0938.221-.1465.354-.1465h15.51c.132,0,.259.0527.353.1465.094.0937.147.2209.147.3535s-.053.2598-.147.3536-.221.1464-.353.1464Z" fill="#faca15"/><path d="M296.75,75.1408c-3.18,0-5.41,0-5.51,0-.065-.0098-.127-.0323-.184-.0662-.056-.034-.105-.0787-.144-.1316s-.067-.1131-.083-.177-.019-.1302-.009-.1952c.022-.1245.09-.2364.189-.314.1-.0776.225-.1153.351-.106.56,0,13.12,0,17.93,0c.133,0,.26.0527.354.1465.094.0937.146.2209.146.3535-.002.1318-.056.2575-.149.3507s-.219.1468-.351.1493l-12.54-.01Z" fill="#faca15"/><path d="M313.539,75.1302c-.098.0016-.194-.026-.276-.0795s-.146-.1303-.184-.2205c-.026-.0604-.041-.1254-.042-.1913s.011-.1315.035-.1928c.024-.0614.06-.1173.106-.1647s.101-.0851.161-.1112c.12,0,.34-.15,10.87,0c.133,0,.26.0527.354.1464.094.0938.146.221.146.3536s-.052.2598-.146.3535c-.094.0938-.221.1465-.354.1465-3.8,0-10-.08-10.55,0l-.12-.04Z" fill="#15151d"/><path d="M294.489,96.8809h-8c-.132,0-.26-.0527-.353-.1465-.094-.0938-.147-.2209-.147-.3535s.053-.2598.147-.3536c.093-.0938.221-.1464.353-.1464h8c.133,0,.26.0526.354.1464s.146.221.146.3536-.052.2597-.146.3535-.221.1465-.354.1465Z" fill="#faca15"/><path d="M275.49,100h-5.91c-.133,0-.26-.0527-.353-.1464-.094-.0938-.147-.221-.147-.3536s.053-.2598.147-.3536c.093-.0937.22-.1464.353-.1464h5.91c.133,0,.26.0527.354.1464.093.0938.146.221.146.3536-.002.1318-.056.2575-.149.3507s-.219.1467-.351.1493Z" fill="#faca15"/><path d="M291.779,100h-14c-.132-.0026-.257-.0561-.35-.1493-.094-.0932-.147-.2189-.15-.3507c0-.1326.053-.2598.147-.3536.094-.0937.221-.1464.353-.1464h14c.133,0,.26.0527.354.1464.094.0938.146.221.146.3536-.002.1318-.056.2575-.149.3507s-.219.1467-.351.1493Z" fill="#15151d"/><path d="M321.81,100h-27.22c-.132-.0026-.258-.0561-.351-.1493s-.147-.2189-.149-.3507c0-.1326.053-.2598.146-.3536.094-.0937.221-.1464.354-.1464h27.22c.132,0,.26.0527.353.1464.094.0938.147.221.147.3536s-.053.2598-.147.3536c-.093.0937-.221.1464-.353.1464Z" fill="#faca15"/><g transform="translate(-14.677837-.240995)"><path d="M201.23,185.461h-93.64v7.08h93.64v-7.08Z" fill="#15151d"/><path d="M201.23,193.051h-93.64c-.132-.003-.258-.056-.351-.149-.093-.094-.147-.219-.149-.351v-7.09c.002-.132.056-.258.149-.351s.219-.147.351-.149h93.64c.132,0,.26.053.353.146.094.094.147.221.147.354v7.09c0,.066-.013.131-.038.191-.025.061-.062.116-.109.162-.046.047-.101.084-.162.109-.06.025-.125.038-.191.038Zm-93.14-1h92.64v-6.05h-92.64v6.05Z" fill="#e5e7eb"/></g><path d="M79.1797,205.591h-20.96v49.8h20.96v-49.8Z" fill="#15151d"/><path d="M79.1699,255.891h-21c-.1326,0-.2598-.053-.3535-.147-.0938-.093-.1465-.221-.1465-.353v-49.8c0-.133.0527-.26.1465-.354.0937-.093.2209-.146.3535-.146h21c.1326,0,.2598.053.3536.146.0937.094.1464.221.1464.354v49.8c0,.132-.0527.26-.1464.353-.0938.094-.221.147-.3536.147Zm-20.45-1h20v-48.8h-20v48.8Z" fill="#e5e7eb"/><path d="M340.159,205.591h-20.96v49.8h20.96v-49.8Z" fill="#15151d"/><path d="M340.149,255.891h-20.95c-.132,0-.26-.053-.353-.147-.094-.093-.147-.221-.147-.353v-49.8c0-.133.053-.26.147-.354.093-.093.221-.146.353-.146h20.95c.133,0,.26.053.354.146.094.094.146.221.146.354v49.8c0,.132-.052.26-.146.353-.094.094-.221.147-.354.147Zm-20.45-1h19.95v-48.8h-19.95v48.8Z" fill="#e5e7eb"/><path d="M79.1797,205.591h-20.96v12.89h20.96v-12.89Z" fill="#15151d"/><path d="M79.1699,219.001h-21c-.1326,0-.2598-.053-.3535-.147-.0938-.093-.1465-.221-.1465-.353v-12.91c0-.133.0527-.26.1465-.354.0937-.093.2209-.146.3535-.146h21c.1326,0,.2598.053.3536.146.0937.094.1464.221.1464.354v12.89c.0027.067-.0082.134-.0321.197-.024.063-.0604.121-.1071.169-.0467.049-.1027.088-.1647.114s-.1287.04-.1961.04Zm-20.45-1h20v-11.91h-20v11.91Z" fill="#e5e7eb"/><path d="M340.159,205.591h-20.96v12.89h20.96v-12.89Z" fill="#15151d"/><path d="M340.149,219.001h-20.95c-.132,0-.26-.053-.353-.147-.094-.093-.147-.221-.147-.353v-12.91c0-.133.053-.26.147-.354.093-.093.221-.146.353-.146h20.95c.133,0,.26.053.354.146.094.094.146.221.146.354v12.89c.003.067-.008.134-.032.197s-.06.121-.107.169c-.047.049-.103.088-.165.114s-.128.04-.196.04Zm-20.45-1h19.95v-11.91h-19.95v11.91Z" fill="#e5e7eb"/><path d="M352.93,193.15h-307.5003v12.44h307.5003v-12.44Z" fill="#15151d"/><path d="M352.93,206.09h-307.5003c-.1318-.002-.2575-.056-.3507-.149-.0933-.093-.1468-.219-.1493-.351v-12.44c0-.132.0527-.259.1464-.353.0938-.094.221-.147.3536-.147h307.5003c.132,0,.259.053.353.147s.147.221.147.353v12.44c0,.133-.053.26-.147.354s-.221.146-.353.146Zm-307.0003-1h306.5003v-11.44h-306.5003v11.44Z" fill="#e5e7eb"/><g id="eszEqluZBoI142" transform="translate(.000001 0.000001)"><g transform="translate(.000001 0.000001)"><path d="M270.699,193.21h28.2c.51,0-3.25-12.13-12.31-12.47s-15.89,12.47-15.89,12.47Z" fill="#e5e7eb"/><path d="M298.9,193.71h-28.2c-.086.003-.172-.018-.248-.06-.076-.041-.14-.102-.184-.176-.045-.075-.069-.159-.071-.246-.001-.087.021-.172.063-.248.29-.54,7.1-13.06,16.35-12.74c8.88.33,12.86,11.43,12.83,12.87.007.076-.002.152-.026.224s-.062.138-.113.194c-.05.057-.112.102-.181.133-.069.032-.144.048-.22.049Zm-27.33-1h26.83c-.47-2.22-4.37-11.19-11.82-11.47h-.34c-7.24-.01-13.09,8.83-14.67,11.47Z" fill="#15151d"/></g><g id="eszEqluZBoI146"><path d="M243.24,159.591l8.35,19.18c0,0,23.55,4.3,25.22,3.39s4.17-4.1,5.75-5.12s8.06-.12,9.18.68s3.71,4,3.43,5-1.86-.11-1.86-.11s2.36,1.59,1.88,2.85-5.49-2.05-6.42-2.05-3.43,6.94-6.21,9.34-33.75,6.92-36.63,6.24-18.93-23.8-18.93-23.8l3.24-14.58l13-1.02Z" transform="translate(.237622 0)" fill="#15151d"/><path d="M246.9,199.57c-.362.01-.724-.017-1.08-.08-3-.71-17.56-21.63-19.21-24-.04-.058-.068-.123-.081-.191-.014-.069-.014-.14.001-.209l3.24-14.58c.024-.104.081-.197.162-.267.08-.07.181-.113.288-.123l13-1c.104-.007.207.018.297.072.089.053.16.133.203.228l8.24,18.94c11.14,2,23.49,3.89,24.63,3.39c1.101-.769,2.108-1.665,3-2.67.816-.894,1.717-1.708,2.69-2.43c1.8-1.18,8.54-.17,9.74.69c1,.72,4,4.13,3.62,5.55-.033.153-.1.295-.198.417-.097.121-.221.218-.363.283.271.268.466.602.566.969.101.367.102.754.005,1.121-.048.119-.12.226-.211.316-.092.089-.2.159-.319.204-.83.32-2.29-.35-4.42-1.4-.605-.327-1.233-.608-1.88-.84-.634.87-1.183,1.797-1.64,2.77-1.19,2.24-2.67,5-4.31,6.44-1.85,1.59-13.57,3.6-18.52,4.39-6.69,1.03-14.41,2.01-17.45,2.01Zm-19.35-24.48c6.18,8.89,16.55,23,18.5,23.42c3,.71,33.71-4,36.18-6.13c1.49-1.28,2.919-4,4.069-6.15c1.31-2.46,1.801-3.31,2.471-3.31.846.191,1.651.529,2.38,1c1,.51,3.18,1.57,3.62,1.37.18-.53-.84-1.57-1.65-2.15L293,183c-.102-.078-.169-.193-.188-.319-.02-.127.01-.256.083-.361s.184-.179.31-.204c.125-.026.256-.003.365.064l.09.07c.285.229.635.362,1,.38.18-.66-2-3.63-3.22-4.52-.93-.67-7.21-1.59-8.62-.67-.905.69-1.748,1.456-2.521,2.29-.964,1.081-2.059,2.039-3.259,2.85-1.74,1-21.59-2.61-25.55-3.34-.081-.014-.157-.048-.222-.098-.064-.051-.115-.117-.148-.192l-8.2-18.85-12.26,1-3.11,13.99Z" fill="#e5e7eb"/></g></g><path d="M164.999,212.67c0,0-45.11,10.82-46.48,18.8s2.17,23.58,2.17,23.58h116.2c0,0,5.52-32.86,0-45.34s-71.89,2.96-71.89,2.96Z" fill="#e5e7eb"/><path d="M236.93,255.55h-116.2c-.114.001-.225-.038-.314-.109-.089-.07-.151-.17-.176-.281-.14-.64-3.54-15.79-2.17-23.78c1.41-8.2,45-18.75,46.86-19.19.17,0,16.81-3.89,33.92-6.17c23.18-3.08,36.15-1.91,38.53,3.5c5.52,12.47.27,44.28,0,45.62-.02.109-.074.207-.156.282-.081.074-.185.119-.294.128Zm-115.8-1h115.37c.61-3.85,5-33.19,0-44.64C234.31,205,221.35,204,199,207c-17,2.27-33.58,6.1-33.83,6.16-12.46,3-45,12.12-46.1,18.39-1.23,7.09,1.53,20.54,2.06,23Z" fill="#e5e7eb"/><g id="eszEqluZBoI151" transform="translate(0 0.000001)"><path d="M146.249,161.071l-6,14.69c0,0-17.93-10.21-22.71-10.93-13.56-2.06-18.5697,6.6-18.7997,8.08s13.0997-.11,13.0997-.11-5.62,2-5.12,4.44c.27,1.37,6.6-1.93,7.63-1.59s28.16,21.35,37.73,23.35s31.53-45.82,31.53-45.82" transform="translate(.679971 0)" fill="#15151d"/><path d="M152.65,199.58c-.229.002-.457-.021-.68-.07-7.54-1.61-25.3-14.43-33.83-20.6-2-1.43-3.71-2.67-4-2.8-.966.175-1.909.461-2.81.85-2.44.88-4,1.38-4.71,1-.109-.059-.203-.142-.275-.243-.073-.1-.122-.215-.145-.337-.31-1.54,1.16-2.83,2.66-3.72-4.1.41-9.5604.76-10.4304-.15-.0837-.08-.1466-.179-.1832-.289-.0366-.109-.0458-.226-.0268-.341.21-1.4,5.2204-10.65,19.3604-8.51c4.43.67,19.41,9,22.4,10.72l5.77-14.17c.024-.061.06-.116.106-.164.046-.047.1-.084.161-.11.06-.026.125-.04.191-.041.065-.001.131.011.192.035.061.025.116.061.163.107.048.045.085.1.111.16.026.061.04.126.041.191.001.066-.011.131-.035.192l-6,14.7c-.029.065-.07.123-.122.171-.051.048-.112.085-.178.109-.065.03-.135.045-.205.045-.071,0-.141-.015-.205-.045-.18-.11-17.91-10.18-22.55-10.88-13.38-2-17.6304,6.28-18.1604,7.52c1.1404.45,7.2104.09,12.4804-.54.123-.015.248.017.35.089s.173.179.2.301c.029.12.012.245-.048.353-.059.107-.156.188-.272.227-1.33.47-5,2.16-4.82,3.8.54.14,2.67-.63,3.83-1c1.91-.68,2.93-1,3.49-.85c1.464.892,2.873,1.87,4.22,2.93c7.81,5.65,26.12,18.86,33.45,20.44c7.54,1.6,24.92-32.33,31-45.54.026-.06.063-.115.111-.161.048-.045.104-.081.165-.104.062-.023.128-.034.194-.031.065.002.13.018.19.046.118.057.211.157.257.28.047.123.044.259-.007.38-.87,1.81-21.29,46.05-31.4,46.05Z" fill="#e5e7eb"/></g><g id="eszEqluZBoI154" transform="translate(.000001 1.000384)"><path d="M204.73,96.0002c1.084-.4145,2.071-1.0476,2.9-1.86c1.164-1.1983,2.096-2.602,2.75-4.14c3.531-7.8809,4.712-16.6141,3.4-25.15-.53-3.68-1.28-8.8-3.48-11.89-1.051-1.3764-2.505-2.3903-4.16-2.8999-.45-.13-5.15.1499-4.71.6699-1.757-2.0187-3.946-3.6162-6.404-4.6739s-5.123-1.5485-7.796-1.4361c-4.52.18-10,2.15-12.93,5.75-1.2,1.48-1.64,2.64-3.57,3.33-2.548.8538-5.323.7254-7.78-.36-.6-.25-4.5-1.62-4.48-2.16-.08,2.6035.596,5.1743,1.947,7.4015c1.35,2.2273,3.317,4.0155,5.663,5.1485-2.792.1852-5.59-.2555-8.19-1.29c1.231,2.8361,3.343,5.2001,6.023,6.7419c2.681,1.5417,5.786,2.1793,8.857,1.8181c2,2.84,4.64,5.25,6.61,8.25c2.09,3.18,4.1,6.49,6.87,9.14c4.37,4.14,12.24,9.98,18.48,7.61Z" fill="#15151d"/><path d="M201.64,97.0604c-6.24,0-12.87-5.6-15.73-8.34-2.373-2.4379-4.451-5.1465-6.19-8.07l-.72-1.15c-1.097-1.5796-2.3-3.0831-3.6-4.5-1-1.11-2-2.27-2.86-3.49-3.136.3156-6.29-.3736-9.008-1.968-2.717-1.5944-4.858-4.0114-6.112-6.902-.037-.0908-.046-.1904-.026-.2862s.067-.1839.136-.2531.157-.1166.253-.1363c.096-.0196.196-.0107.287.0256c1.958.774,4.035,1.2069,6.14,1.28-1.98-1.3237-3.589-3.1305-4.676-5.2496s-1.615-4.4803-1.534-6.8604c.001-.0661.015-.1312.042-.1916.028-.0603.067-.1145.115-.1593.049-.0449.106-.0794.168-.1016s.129-.0315.195-.0275c.103-.0027.204.0265.29.0838s.152.1399.19.2362c1.13.6704,2.335,1.2073,3.59,1.6l.6.24c2.343,1.0365,4.989,1.1613,7.42.35c1.082-.4142,1.989-1.1872,2.57-2.19.22-.31.46-.63.74-1c3.13-3.86,8.93-5.76,13.29-5.94c2.665-.0901,5.318.3936,7.78,1.4185c2.462,1.0248,4.676,2.5668,6.49,4.5215c1.57-.3802,3.187-.5285,4.8-.44c1.764.5396,3.314,1.6206,4.43,3.09c2.28,3.2,3,8.35,3.57,12.11c1.308,8.6322.11,17.4584-3.45,25.43-.67,1.6047-1.63,3.0724-2.83,4.33-.881.868-1.929,1.5484-3.08,2-1.052.3788-2.163.5618-3.28.54Zm-28.87-26.59c.08.0004.158.0196.23.0561.071.0365.133.0892.18.1539.9,1.27,2,2.48,3,3.66c1.309,1.4706,2.519,3.0275,3.62,4.66l.76,1.16c1.694,2.8492,3.707,5.4963,6,7.89c3.23,3.09,11.45,10,18,7.54c1.022-.3919,1.954-.9872,2.74-1.75c1.115-1.1604,2.006-2.5164,2.63-4c3.484-7.7918,4.654-16.4216,3.37-24.86-.53-3.66-1.25-8.67-3.4-11.68-.978-1.3072-2.342-2.273-3.9-2.76-1.377-.0332-2.752.0909-4.1.37-.029.0801-.082.1497-.15.2-.049.0443-.107.078-.169.099-.063.021-.129.029-.194.0234-.066-.0057-.13-.0247-.188-.0561s-.109-.0744-.149-.1263c-1.706-1.9601-3.832-3.511-6.219-4.5375-2.387-1.0266-4.975-1.5025-7.571-1.3925-4.13.17-9.62,2-12.56,5.57-.26.32-.49.63-.7.92-.706,1.1827-1.797,2.0866-3.09,2.56-2.669.8901-5.573.7583-8.15-.37-.1,0-.3-.12-.57-.22-1.089-.3924-2.154-.8464-3.19-1.36.115,2.3309.855,4.5877,2.143,6.5338s3.076,3.5095,5.177,4.5262c.132.0239.25.0995.327.2101.077.1107.106.2473.083.3799-.024.1326-.1.2503-.21.3272-.111.0769-.248.1067-.38.0828-2.456.1641-4.921-.1448-7.26-.91c1.323,2.445,3.352,4.4348,5.822,5.7101c2.471,1.2754,5.268,1.7771,8.028,1.4399l.04-.05Z" fill="#e5e7eb"/><path d="M172.31,81.4404c0,0-5.2,10.11-3.7,11.92s5.65,0,5.65,0" fill="#15151d"/><path d="M170.8,94.6804c-.476.0347-.953-.037-1.398-.21s-.845-.4429-1.172-.79c-1.63-2,2.74-10.73,3.64-12.47.03-.0585.072-.1104.122-.1528s.108-.0746.171-.0945.129-.0274.194-.0219c.066.0056.129.024.188.0542.058.0302.11.0716.153.1219.042.0502.074.1084.094.171s.028.1287.022.1943c-.005.0655-.024.1293-.054.1878-2.49,4.83-4.57,10.4-3.76,11.33c1,1.26,4,.36,5.06-.09.122-.0531.26-.0555.384-.0067.124.0487.223.1447.276.2667s.055.2601.007.3838c-.049.1238-.145.2231-.267.2762-1.16.4976-2.399.7854-3.66.85Z" fill="#e5e7eb"/><path d="M172.28,68.8406c-3.61,3.67-1.71,10.39-1.19,14.84.726,6.2534,1.603,12.4867,2.63,18.7004.64,4,10.93,2.91,12.61,1.53l.11,15.85l21.91-3.71-3.53-19.8004c0,0-7,.81-11.89-6.83s-6.24-25.28-6.24-25.28-10.88,1.12-14.41,4.7Z" fill="#15151d"/><path d="M186.44,120.261c-.12-.003-.236-.045-.33-.12-.054-.048-.097-.106-.126-.172-.03-.065-.045-.136-.044-.208l-.1-15c-2.22.89-7.25,1.36-10.16.26-.606-.153-1.157-.472-1.591-.92-.435-.449-.736-1.01-.869-1.62-1-6.1903-1.9-12.4903-2.63-18.7303-.09-.74-.21-1.55-.34-2.4-.67-4.28-1.5-9.61,1.68-12.84c3.61-3.67,14.25-4.8,14.71-4.84.066-.0082.133-.0027.197.0162.063.0189.122.0509.173.0938.101.0896.162.2155.17.35c0,.17,1.4,17.59,6.17,25c4.66,7.27,11.14,6.64,11.41,6.61.126-.0123.253.0229.354.0987.102.0758.172.1868.196.3113l3.54,19.8503c.021.133-.012.27-.09.38-.036.054-.083.1-.138.134-.056.035-.118.057-.182.066l-21.92,3.71-.08-.03Zm-.11-16.85c.069-.015.141-.015.21,0c.087.039.16.102.212.182.051.08.079.173.078.268l.1,15.27l20.84-3.53-3.37-18.8203c-1.68,0-7.56-.33-11.89-7.09-4.49-7-6-22-6.28-25-2.16.27-10.66,1.51-13.59,4.49s-2,7.93-1.41,12c.14.87.27,1.69.36,2.45.72,6.22,1.61,12.5,2.62,18.6803.12.76.74,1.35,1.82,1.76c3.12,1.17,8.88.36,10-.54.083-.074.189-.116.3-.12Z" fill="#e5e7eb"/><path d="M173.359,97.7006c0,0,5.17,2.4604,7.21-2.85l-7.21,2.85Z" fill="#15151d"/><path d="M176,98.7701c-.992-.0068-1.973-.2178-2.88-.62-.064-.0251-.122-.0631-.171-.1116-.048-.0485-.086-.1065-.111-.1704-.026-.0639-.037-.1323-.035-.2009s.019-.1361.049-.198c.029-.062.071-.1172.123-.1622s.113-.0788.178-.0993c.066-.0206.135-.0274.203-.0201s.134.0286.194.0625c1.281.5654,2.725.6436,4.06.22.587-.2644,1.111-.6508,1.537-1.1337.426-.4828.744-1.0508.933-1.6663.051-.1217.147-.2189.268-.2711.122-.0522.258-.0554.382-.0089.112.0506.202.1409.252.2534.049.1126.056.2395.018.3566-.236.7421-.624,1.4263-1.141,2.0086-.517.5822-1.15,1.0495-1.859,1.3714-.636.2541-1.315.3864-2,.39Z" fill="#e5e7eb"/><path d="M184.76,84.1404c-.013-1.5798.417-3.1315,1.24-4.48.505-1.126,1.18-2.1681,2-3.09.404-.462.907-.8276,1.471-1.0699s1.176-.3551,1.789-.3301c.538.0738,1.054.2608,1.514.5487s.854.67,1.156,1.1213c.589.9058.971,1.93,1.12,3c.358,2.3439.094,4.7407-.766,6.9503-.86,2.2097-2.286,4.1545-4.134,5.6397l.31-.41" fill="#15151d"/><path d="M190.149,93.0002c-.092.0024-.184-.0216-.264-.0691-.079-.0475-.144-.1167-.186-.1994-.042-.0828-.059-.1757-.05-.268s.043-.1802.1-.2535l.31-.42c.046-.0627.107-.1135.176-.1483.07-.0348.146-.0525.224-.0517c1.579-1.449,2.778-3.2638,3.491-5.2847s.919-4.1862.599-6.3053c-.114-1.0039-.456-1.9685-1-2.82-.261-.3916-.602-.724-1-.9755s-.844-.4166-1.31-.4845c-.537-.0186-1.072.083-1.565.2976s-.932.5365-1.285.9424c-.773.8982-1.404,1.91-1.87,3-.786,1.2691-1.214,2.7272-1.24,4.22.007.0652.001.1311-.018.1938s-.051.1209-.093.1713-.093.0918-.151.1218c-.059.03-.122.0481-.188.0531-.13.0085-.259-.0334-.36-.1171-.1-.0838-.165-.203-.18-.3329-.009-1.6797.451-3.3286,1.33-4.76.501-1.1651,1.175-2.2474,2-3.21.455-.5187,1.022-.9275,1.657-1.196.636-.2684,1.324-.3895,2.013-.354.605.0812,1.186.291,1.704.6152.517.3243.959.7555,1.296,1.2648.642.9714,1.056,2.0757,1.21,3.23.367,2.4324.091,4.9184-.8,7.2113-.891,2.2928-2.366,4.3125-4.28,5.8587-.081.0484-.175.0727-.27.07Z" fill="#e5e7eb"/><path d="M173.744,78.6132c.485-.0265.823-1.0539.755-2.2947-.067-1.2408-.516-2.2251-1.001-2.1986-.485.0266-.824,1.0539-.756,2.2947s.516,2.2251,1.002,2.1986Z" fill="#e5e7eb"/><path d="M186.33,103.91c3.596-.341,7.083-1.424,10.24-3.18c0,0-2.06,9.73-9.87,11l-.37-7.82Z" fill="#e5e7eb"/><path d="M186.7,112.201c-.117.005-.232-.034-.32-.11-.055-.043-.1-.098-.131-.16s-.048-.131-.049-.2l-.37-7.8c-.006-.13.039-.256.125-.353.085-.097.205-.157.335-.167c3.509-.351,6.91-1.409,10-3.11.08-.052.174-.079.27-.079.095,0,.189.027.27.079.08.055.142.133.177.224.036.091.044.191.023.286-.08.42-2.22,10.08-10.29,11.37l-.04.02Zm.15-7.84l.32,6.75c5.44-1.21,7.82-6.92,8.6-9.36-2.802,1.374-5.82,2.257-8.92,2.61Z" fill="#e5e7eb"/></g><path d="M240.72,212.67c0,0-1.08-73.2-12.06-90s-39.41-20.67-53.05-10.67-10.61,100.67-10.61,100.67h75.72Z" fill="#faca15"/><path d="M185.1,107.7c0,0-16.27,1.36-25.67,9.15s-19.18,47.64-19.18,47.64l30,6.76L185.1,107.7Z" fill="#faca15"/><path d="M165.84,187.43c-.131-.008-.255-.064-.345-.159-.091-.094-.143-.22-.145-.351.35-21.5,1-57.66,1.26-58.28.056-.121.158-.215.283-.262.126-.047.264-.043.387.012.107.05.194.137.243.245.05.108.059.231.027.345-.22,1.52-.88,38.53-1.2,58-.013.125-.073.242-.167.325-.095.084-.217.128-.343.125Z" fill="#15151d"/><path d="M217.35,112.261c0,0,13.69,1.55,20.93,16.58c3.93,8.16,14,34.49,14,34.49l-30.21,3.48-4.72-54.55Z" fill="#faca15"/><path d="M244.25,192.55h-47.59c-1.503,0-2.988-.321-4.356-.941-1.369-.619-2.589-1.524-3.58-2.653s-1.73-2.457-2.167-3.895c-.437-1.437-.562-2.951-.367-4.441l5.22-40.05c.328-2.544,1.572-4.882,3.499-6.575s4.405-2.627,6.971-2.625h47.59c1.501,0,2.985.321,4.353.94s2.588,1.523,3.579,2.651s1.73,2.455,2.167,3.891c.438,1.436.564,2.949.371,4.438l-5.22,40.06c-.333,2.543-1.578,4.878-3.504,6.57-1.926,1.693-4.402,2.627-6.966,2.63Z" fill="#15151d"/><path d="M244.249,193.05h-47.59c-1.576.005-3.134-.327-4.572-.974-1.437-.647-2.719-1.593-3.761-2.776-1.041-1.183-1.818-2.574-2.278-4.082-.46-1.507-.593-3.095-.389-4.658l5.22-40.06c.354-2.666,1.665-5.112,3.689-6.884c2.023-1.772,4.622-2.747,7.311-2.746h47.59c1.576-.005,3.135.328,4.572.974c1.437.647,2.719,1.594,3.761,2.776c1.042,1.183,1.818,2.575,2.278,4.082s.593,3.095.389,4.658l-5.23,40.06c-.352,2.665-1.66,5.112-3.682,6.884-2.022,1.771-4.619,2.747-7.308,2.746Zm-42.37-61.18c-2.445.001-4.807.889-6.646,2.5-1.84,1.612-3.031,3.836-3.354,6.26l-5.22,40.06c-.182,1.421-.059,2.863.361,4.232.419,1.37,1.125,2.634,2.072,3.708.946,1.075,2.11,1.936,3.415,2.526s2.72.894,4.152.894h47.59c2.446,0,4.808-.889,6.647-2.5s3.031-3.836,3.353-6.26l5.22-40.06c.196-1.422.082-2.87-.332-4.245s-1.12-2.645-2.069-3.723-2.118-1.938-3.43-2.524c-1.311-.585-2.733-.881-4.169-.868h-47.59Z" fill="#e5e7eb"/><path d="M213.436,166.49c0,0,5.793,6.806,6.027,9.367s-11.463,61.143-11.463,61.143l16.563-4.653c0,0,11.453-54.633,10.364-58.816-1.089-4.184-7.92-9.531-7.92-9.531l-13.571,2.49Z" fill="#e5e7eb"/><path d="M208.35,236.41c-.125-.003-.245-.049-.34-.13-.061-.061-.106-.135-.132-.217-.026-.081-.032-.168-.018-.253c4.62-23.05,11.42-58,11.25-59.78s-4.25-7.07-5.8-8.9c-.055-.067-.093-.147-.108-.232-.015-.086-.007-.174.022-.255.029-.082.079-.155.145-.211.066-.057.146-.095.231-.112l13.33-2.44c.068-.013.137-.012.205.004.067.015.13.045.185.086.28.22,6.87,5.4,8,9.61s-9.72,55.69-10.18,57.88c-.017.09-.059.173-.121.24s-.141.116-.229.14l-16.27,4.55c-.054.021-.113.028-.17.02Zm6.27-69.26c1.51,1.82,5.29,6.6,5.49,8.79.22,2.42-9.66,52-11.11,59.27L224.2,231c3.16-15.08,11-53.87,10.12-57.12-.92-3.53-6.39-8.09-7.44-8.94l-12.26,2.21Z" fill="#15151d"/><path d="M241.68,229.421h-82.84c-3.733,0-6.76,3.026-6.76,6.76v12.11c0,3.733,3.027,6.76,6.76,6.76h82.84c3.734,0,6.76-3.027,6.76-6.76v-12.11c0-3.734-3.026-6.76-6.76-6.76Z" fill="#15151d"/><path d="M241.67,255.551h-82.83c-1.925-.003-3.77-.768-5.131-2.129s-2.126-3.206-2.129-5.131v-12.11c0-1.926.765-3.772,2.126-5.134c1.362-1.361,3.209-2.126,5.134-2.126h82.83c1.926,0,3.772.765,5.134,2.126c1.361,1.362,2.126,3.208,2.126,5.134v12.11c-.003,1.925-.768,3.77-2.129,5.131s-3.206,2.126-5.131,2.129Zm-82.83-25.63c-1.66,0-3.252.659-4.426,1.833s-1.834,2.767-1.834,4.427v12.11c0,1.66.66,3.252,1.834,4.426s2.766,1.834,4.426,1.834h82.83c1.66,0,3.253-.66,4.427-1.834s1.833-2.766,1.833-4.426v-12.11c0-1.66-.659-3.253-1.833-4.427s-2.767-1.833-4.427-1.833h-82.83Z" fill="#e5e7eb"/><path d="M152,249.74c-.133,0-.26-.052-.354-.146-.093-.094-.146-.221-.146-.354v-12.74c.007-2.016.804-3.95,2.218-5.387c1.415-1.437,3.336-2.263,5.352-2.303l50.34-.81l8.92-45.95c0-.11,2.15-10.42-3.6-13.24-.059-.027-.112-.067-.155-.115-.044-.048-.077-.105-.098-.166-.022-.062-.031-.127-.027-.192s.021-.128.05-.187.069-.112.118-.155c.05-.044.107-.077.169-.099.062-.021.128-.03.194-.026s.13.021.189.05c6.44,3.16,4.23,13.88,4.13,14.33l-9,46.33c-.021.112-.08.214-.168.287s-.198.113-.312.113l-50.74.82c-1.755.037-3.427.758-4.658,2.01-1.231,1.251-1.925,2.935-1.932,4.69v12.74c0,.131-.051.257-.143.35-.092.094-.216.148-.347.15Z" fill="#15151d"/><path d="M241.849,229.921l-16.79-.12c-.074,0-.146-.017-.212-.05s-.124-.081-.168-.14c-.047-.056-.081-.122-.1-.193s-.023-.145-.01-.217l3.38-16.63c.031-.128.109-.239.219-.311.109-.072.242-.101.371-.079.129.029.241.106.314.216s.1.244.076.374l-3.26,16l16.19.11c.133,0,.26.052.354.146s.146.221.146.354c0,.132-.052.26-.146.353-.094.094-.221.147-.354.147l-.01.04Z" fill="#15151d"/><path d="M234.799,175.85c-.065-.004-.129-.02-.187-.049-.059-.029-.112-.069-.154-.119-.043-.049-.076-.107-.096-.169s-.028-.128-.023-.193c.1-1.53-.22-3.059-.925-4.421s-1.768-2.506-3.075-3.309c-.113-.067-.196-.175-.231-.302-.036-.126-.021-.262.041-.378.065-.115.174-.2.301-.235.128-.036.264-.02.379.045c1.472.895,2.671,2.177,3.466,3.705.795,1.529,1.156,3.246,1.044,4.965-.005.066-.023.13-.053.189-.029.059-.071.111-.121.154-.05.042-.108.075-.171.095s-.129.028-.195.022Z" fill="#15151d"/><path d="M76.4699,185.881h-3.8c-.1326,0-.2598-.053-.3535-.147-.0938-.093-.1465-.221-.1465-.353c0-.133.0527-.26.1465-.354.0937-.093.2209-.146.3535-.146h3.8c.4667.025.9336-.045,1.3723-.206.4386-.162.8399-.411,1.1791-.732.3393-.321.6095-.709.7941-1.138.1847-.429.2799-.892.2799-1.359s-.0952-.93-.2799-1.359c-.1846-.43-.4548-.817-.7941-1.138-.3392-.322-.7405-.571-1.1791-.732-.4387-.161-.9056-.231-1.3723-.206-.1318-.003-.2575-.056-.3507-.149-.0932-.094-.1467-.219-.1493-.351c0-.133.0527-.26.1465-.354.0937-.093.2209-.146.3535-.146.6002-.029,1.1998.065,1.7627.275s1.0774.532,1.5122.947c.4347.414.7809.913,1.0174,1.465.2364.552.3584,1.147.3584,1.748s-.122,1.195-.3584,1.748c-.2365.552-.5827,1.05-1.0174,1.465s-.9493.737-1.5122.947-1.1625.303-1.7627.275Z" fill="#d1d3d4"/><path d="M83.6801,187.91c0,2.43-8.25,4.4-18.42,4.4s-18.43-2-18.43-4.4h36.85Z" fill="#15151d"/><path d="M65.2601,192.81c-9.18,0-18.93-1.72-18.93-4.9c0-.132.0527-.26.1464-.353.0938-.094.221-.147.3536-.147h36.85c.1326,0,.2598.053.3535.147.0938.093.1465.221.1465.353c0,3.18-9.75,4.9-18.92,4.9Zm-17.73-4.4c1.2,1.56,7.72,3.4,17.73,3.4s16.53-1.81,17.74-3.4h-35.47Z" fill="#d1d3d4"/><path d="M74.6992,187.91h-18.89l-3.61-14.09h26.11l-3.61,14.09Z" fill="#15151d"/><path d="M74.6996,188.41h-18.89c-.1113.001-.2194-.036-.3067-.105-.0872-.07-.1484-.166-.1733-.275l-3.61-14.09c-.018-.073-.0193-.15-.0037-.225.0156-.074.0476-.144.0937-.205.0476-.06.1084-.108.1778-.141s.1454-.05.2222-.049h26.1c.0766,0,.1524.017.2217.05.0692.033.1302.081.1783.14.0443.062.0752.132.0907.206s.0152.15-.0007.224L75.1896,188c-.0228.114-.0838.217-.1729.292-.0891.074-.201.116-.3171.118Zm-18.5-1h18.12l3.35-13.09h-24.82l3.35,13.09Z" fill="#d1d3d4"/><path d="M310.67,192.32h40.33v-7.08h-40.33v7.08Z" fill="#15151d"/><path d="M351,192.82h-40.33c-.133,0-.26-.052-.354-.146-.093-.094-.146-.221-.146-.354v-7.09c0-.132.053-.259.146-.353.094-.094.221-.147.354-.147h40.33c.132.003.257.057.351.15.093.093.146.219.149.35v7.09c-.003.132-.056.258-.149.351-.094.093-.219.147-.351.149Zm-39.83-1h39.33v-6.09h-39.33v6.09Z" fill="#d1d3d4"/><path d="M316.3,185.23h46.26v-7.08h-46.26v7.08Z" fill="#15151d"/><path d="M362.57,185.73h-46.26c-.133,0-.26-.052-.354-.146s-.146-.221-.146-.354v-7.08c0-.132.052-.259.146-.353s.221-.147.354-.147h46.26c.132,0,.259.053.353.147s.147.221.147.353v7.08c0,.133-.053.26-.147.354s-.221.146-.353.146Zm-45.76-1h45.26v-6.08h-45.26v6.08Z" fill="#d1d3d4"/><path d="M312.17,178.15h46.26v-7.08h-46.26v7.08Z" fill="#15151d"/><path d="M358.43,178.651h-46.26c-.133,0-.26-.053-.354-.147-.093-.094-.146-.221-.146-.353v-7.09c0-.133.053-.26.146-.354.094-.094.221-.146.354-.146h46.26c.133,0,.26.052.353.146.094.094.147.221.147.354v7.09c0,.132-.053.259-.147.353-.093.094-.22.147-.353.147Zm-45.76-1h45.26v-6.09h-45.26v6.09Z" fill="#d1d3d4"/><path d="M335.299,192.32h21.19v-7.08h-21.19v7.08Z" fill="#e5e7eb"/><path d="M356.49,192.82h-21.19c-.133,0-.26-.052-.354-.146s-.146-.221-.146-.354v-7.09c0-.132.052-.259.146-.353s.221-.147.354-.147h21.19c.132,0,.26.053.353.147.094.094.147.221.147.353v7.09c0,.133-.053.26-.147.354-.093.094-.221.146-.353.146Zm-20.69-1h20.2v-6.09h-20.2v6.09Z" fill="#e5e7eb"/><path d="M338.269,185.23h24.3v-7.08h-24.3v7.08Z" fill="#e5e7eb"/><path d="M362.57,185.73h-24.31c-.133,0-.26-.052-.354-.146s-.146-.221-.146-.354v-7.08c0-.132.052-.259.146-.353s.221-.147.354-.147h24.31c.132,0,.26.053.353.147.094.094.147.221.147.353v7.08c0,.133-.053.26-.147.354-.093.094-.221.146-.353.146Zm-23.81-1h23.31v-6.08h-23.31v6.08Z" fill="#e5e7eb"/><path d="M336.09,178.15h24.3v-7.08h-24.3v7.08Z" fill="#e5e7eb"/><path d="M360.39,178.651h-24.3c-.133,0-.26-.053-.354-.147-.093-.094-.146-.221-.146-.353v-7.09c0-.133.053-.26.146-.354.094-.094.221-.146.354-.146h24.3c.132,0,.26.052.353.146.094.094.147.221.147.354v7.09c0,.132-.053.259-.147.353-.093.094-.221.147-.353.147Zm-23.8-1h23.3v-6.09h-23.3v6.09Z" fill="#e5e7eb"/>
<script><![CDATA[
!function(t,n){"object"==typeof exports&&"undefined"!=typeof module?module.exports=n():"function"==typeof __SVGATOR_DEFINE__&&__SVGATOR_DEFINE__.amd?__SVGATOR_DEFINE__(n):((t="undefined"!=typeof globalThis?globalThis:t||self).__SVGATOR_PLAYER__=t.__SVGATOR_PLAYER__||{},t.__SVGATOR_PLAYER__["5c7f360c"]=n())}(this,(function(){"use strict";function t(t,n){var e=Object.keys(t);if(Object.getOwnPropertySymbols){var r=Object.getOwnPropertySymbols(t);n&&(r=r.filter((function(n){return Object.getOwnPropertyDescriptor(t,n).enumerable}))),e.push.apply(e,r)}return e}function n(n){for(var e=1;e<arguments.length;e++){var r=null!=arguments[e]?arguments[e]:{};e%2?t(Object(r),!0).forEach((function(t){u(n,t,r[t])})):Object.getOwnPropertyDescriptors?Object.defineProperties(n,Object.getOwnPropertyDescriptors(r)):t(Object(r)).forEach((function(t){Object.defineProperty(n,t,Object.getOwnPropertyDescriptor(r,t))}))}return n}function e(t){return(e="function"==typeof Symbol&&"symbol"==typeof Symbol.iterator?function(t){return typeof t}:function(t){return t&&"function"==typeof Symbol&&t.constructor===Symbol&&t!==Symbol.prototype?"symbol":typeof t})(t)}function r(t,n){if(!(t instanceof n))throw new TypeError("Cannot call a class as a function")}function i(t,n){for(var e=0;e<n.length;e++){var r=n[e];r.enumerable=r.enumerable||!1,r.configurable=!0,"value"in r&&(r.writable=!0),Object.defineProperty(t,r.key,r)}}function o(t,n,e){return n&&i(t.prototype,n),e&&i(t,e),t}function u(t,n,e){return n in t?Object.defineProperty(t,n,{value:e,enumerable:!0,configurable:!0,writable:!0}):t[n]=e,t}function a(t){return(a=Object.setPrototypeOf?Object.getPrototypeOf:function(t){return t.__proto__||Object.getPrototypeOf(t)})(t)}function l(t,n){return(l=Object.setPrototypeOf||function(t,n){return t.__proto__=n,t})(t,n)}function s(){if("undefined"==typeof Reflect||!Reflect.construct)return!1;if(Reflect.construct.sham)return!1;if("function"==typeof Proxy)return!0;try{return Boolean.prototype.valueOf.call(Reflect.construct(Boolean,[],(function(){}))),!0}catch(t){return!1}}function f(t,n,e){return(f=s()?Reflect.construct:function(t,n,e){var r=[null];r.push.apply(r,n);var i=new(Function.bind.apply(t,r));return e&&l(i,e.prototype),i}).apply(null,arguments)}function c(t,n){if(n&&("object"==typeof n||"function"==typeof n))return n;if(void 0!==n)throw new TypeError("Derived constructors may only return object or undefined");return function(t){if(void 0===t)throw new ReferenceError("this hasn't been initialised - super() hasn't been called");return t}(t)}function h(t,n,e){return(h="undefined"!=typeof Reflect&&Reflect.get?Reflect.get:function(t,n,e){var r=function(t,n){for(;!Object.prototype.hasOwnProperty.call(t,n)&&null!==(t=a(t)););return t}(t,n);if(r){var i=Object.getOwnPropertyDescriptor(r,n);return i.get?i.get.call(e):i.value}})(t,n,e||t)}function v(t){return function(t){if(Array.isArray(t))return y(t)}(t)||function(t){if("undefined"!=typeof Symbol&&null!=t[Symbol.iterator]||null!=t["@@iterator"])return Array.from(t)}(t)||function(t,n){if(!t)return;if("string"==typeof t)return y(t,n);var e=Object.prototype.toString.call(t).slice(8,-1);"Object"===e&&t.constructor&&(e=t.constructor.name);if("Map"===e||"Set"===e)return Array.from(t);if("Arguments"===e||/^(?:Ui|I)nt(?:8|16|32)(?:Clamped)?Array$/.test(e))return y(t,n)}(t)||function(){throw new TypeError("Invalid attempt to spread non-iterable instance.\nIn order to be iterable, non-array objects must have a [Symbol.iterator]() method.")}()}function y(t,n){(null==n||n>t.length)&&(n=t.length);for(var e=0,r=new Array(n);e<n;e++)r[e]=t[e];return r}function g(t,n,e){if(Number.isInteger(t))return t;var r=Math.pow(10,n);return Math[e]((+t+Number.EPSILON)*r)/r}Number.isInteger||(Number.isInteger=function(t){return"number"==typeof t&&isFinite(t)&&Math.floor(t)===t}),Number.EPSILON||(Number.EPSILON=2220446049250313e-31);var d=p(Math.pow(10,-6));function p(t){var n=arguments.length>1&&void 0!==arguments[1]?arguments[1]:6;return g(t,n,"round")}function m(t,n){var e=arguments.length>2&&void 0!==arguments[2]?arguments[2]:d;return Math.abs(t-n)<e}p(Math.pow(10,-2)),p(Math.pow(10,-4));var b=Math.PI/180;function w(t){return t}function A(t,n,e){var r=1-e;return 3*e*r*(t*r+n*e)+e*e*e}function _(){var t=arguments.length>0&&void 0!==arguments[0]?arguments[0]:0,n=arguments.length>1&&void 0!==arguments[1]?arguments[1]:0,e=arguments.length>2&&void 0!==arguments[2]?arguments[2]:1,r=arguments.length>3&&void 0!==arguments[3]?arguments[3]:1;return t<0||t>1||e<0||e>1?null:m(t,n)&&m(e,r)?w:function(i){if(i<=0)return t>0?i*n/t:0===n&&e>0?i*r/e:0;if(i>=1)return e<1?1+(i-1)*(r-1)/(e-1):1===e&&t<1?1+(i-1)*(n-1)/(t-1):1;for(var o,u=0,a=1;u<a;){var l=A(t,e,o=(u+a)/2);if(m(i,l))break;l<i?u=o:a=o}return A(n,r,o)}}function x(){return 1}function k(t){return 1===t?1:0}function S(){var t=arguments.length>0&&void 0!==arguments[0]?arguments[0]:1,n=arguments.length>1&&void 0!==arguments[1]?arguments[1]:0;if(1===t){if(0===n)return k;if(1===n)return x}var e=1/t;return function(t){return t>=1?1:(t+=n*e)-t%e}}var O=Math.sin,j=Math.cos,M=Math.acos,E=Math.asin,P=Math.tan,I=Math.atan2,R=Math.PI/180,F=180/Math.PI,N=Math.sqrt,T=function(){function t(){var n=arguments.length>0&&void 0!==arguments[0]?arguments[0]:1,e=arguments.length>1&&void 0!==arguments[1]?arguments[1]:0,i=arguments.length>2&&void 0!==arguments[2]?arguments[2]:0,o=arguments.length>3&&void 0!==arguments[3]?arguments[3]:1,u=arguments.length>4&&void 0!==arguments[4]?arguments[4]:0,a=arguments.length>5&&void 0!==arguments[5]?arguments[5]:0;r(this,t),this.m=[n,e,i,o,u,a],this.i=null,this.w=null,this.s=null}return o(t,[{key:"determinant",get:function(){var t=this.m;return t[0]*t[3]-t[1]*t[2]}},{key:"isIdentity",get:function(){if(null===this.i){var t=this.m;this.i=1===t[0]&&0===t[1]&&0===t[2]&&1===t[3]&&0===t[4]&&0===t[5]}return this.i}},{key:"point",value:function(t,n){var e=this.m;return{x:e[0]*t+e[2]*n+e[4],y:e[1]*t+e[3]*n+e[5]}}},{key:"translateSelf",value:function(){var t=arguments.length>0&&void 0!==arguments[0]?arguments[0]:0,n=arguments.length>1&&void 0!==arguments[1]?arguments[1]:0;if(!t&&!n)return this;var e=this.m;return e[4]+=e[0]*t+e[2]*n,e[5]+=e[1]*t+e[3]*n,this.w=this.s=this.i=null,this}},{key:"rotateSelf",value:function(){var t=arguments.length>0&&void 0!==arguments[0]?arguments[0]:0;if(t%=360){var n=O(t*=R),e=j(t),r=this.m,i=r[0],o=r[1];r[0]=i*e+r[2]*n,r[1]=o*e+r[3]*n,r[2]=r[2]*e-i*n,r[3]=r[3]*e-o*n,this.w=this.s=this.i=null}return this}},{key:"scaleSelf",value:function(){var t=arguments.length>0&&void 0!==arguments[0]?arguments[0]:1,n=arguments.length>1&&void 0!==arguments[1]?arguments[1]:1;if(1!==t||1!==n){var e=this.m;e[0]*=t,e[1]*=t,e[2]*=n,e[3]*=n,this.w=this.s=this.i=null}return this}},{key:"skewSelf",value:function(t,n){if(n%=360,(t%=360)||n){var e=this.m,r=e[0],i=e[1],o=e[2],u=e[3];t&&(t=P(t*R),e[2]+=r*t,e[3]+=i*t),n&&(n=P(n*R),e[0]+=o*n,e[1]+=u*n),this.w=this.s=this.i=null}return this}},{key:"resetSelf",value:function(){var t=arguments.length>0&&void 0!==arguments[0]?arguments[0]:1,n=arguments.length>1&&void 0!==arguments[1]?arguments[1]:0,e=arguments.length>2&&void 0!==arguments[2]?arguments[2]:0,r=arguments.length>3&&void 0!==arguments[3]?arguments[3]:1,i=arguments.length>4&&void 0!==arguments[4]?arguments[4]:0,o=arguments.length>5&&void 0!==arguments[5]?arguments[5]:0,u=this.m;return u[0]=t,u[1]=n,u[2]=e,u[3]=r,u[4]=i,u[5]=o,this.w=this.s=this.i=null,this}},{key:"recomposeSelf",value:function(){var t=arguments.length>0&&void 0!==arguments[0]?arguments[0]:null,n=arguments.length>1&&void 0!==arguments[1]?arguments[1]:null,e=arguments.length>2&&void 0!==arguments[2]?arguments[2]:null,r=arguments.length>3&&void 0!==arguments[3]?arguments[3]:null,i=arguments.length>4&&void 0!==arguments[4]?arguments[4]:null;return this.isIdentity||this.resetSelf(),t&&(t.x||t.y)&&this.translateSelf(t.x,t.y),n&&this.rotateSelf(n),e&&(e.x&&this.skewSelf(e.x,0),e.y&&this.skewSelf(0,e.y)),!r||1===r.x&&1===r.y||this.scaleSelf(r.x,r.y),i&&(i.x||i.y)&&this.translateSelf(i.x,i.y),this}},{key:"decompose",value:function(){var t=arguments.length>0&&void 0!==arguments[0]?arguments[0]:0,n=arguments.length>1&&void 0!==arguments[1]?arguments[1]:0,e=this.m,r=e[0]*e[0]+e[1]*e[1],i=[[e[0],e[1]],[e[2],e[3]]],o=N(r);if(0===o)return{origin:{x:p(e[4]),y:p(e[5])},translate:{x:p(t),y:p(n)},scale:{x:0,y:0},skew:{x:0,y:0},rotate:0};i[0][0]/=o,i[0][1]/=o;var u=e[0]*e[3]-e[1]*e[2]<0;u&&(o=-o);var a=i[0][0]*i[1][0]+i[0][1]*i[1][1];i[1][0]-=i[0][0]*a,i[1][1]-=i[0][1]*a;var l=N(i[1][0]*i[1][0]+i[1][1]*i[1][1]);if(0===l)return{origin:{x:p(e[4]),y:p(e[5])},translate:{x:p(t),y:p(n)},scale:{x:p(o),y:0},skew:{x:0,y:0},rotate:0};i[1][0]/=l,i[1][1]/=l,a/=l;var s=0;return i[1][1]<0?(s=M(i[1][1])*F,i[0][1]<0&&(s=360-s)):s=E(i[0][1])*F,u&&(s=-s),a=I(a,N(i[0][0]*i[0][0]+i[0][1]*i[0][1]))*F,u&&(a=-a),{origin:{x:p(e[4]),y:p(e[5])},translate:{x:p(t),y:p(n)},scale:{x:p(o),y:p(l)},skew:{x:p(a),y:0},rotate:p(s)}}},{key:"clone",value:function(){var t=this.m;return new this.constructor(t[0],t[1],t[2],t[3],t[4],t[5])}},{key:"toString",value:function(){var t=arguments.length>0&&void 0!==arguments[0]?arguments[0]:" ";if(null===this.s){var n=this.m.map((function(t){return p(t)}));1===n[0]&&0===n[1]&&0===n[2]&&1===n[3]?this.s="translate("+n[4]+t+n[5]+")":this.s="matrix("+n.join(t)+")"}return this.s}}],[{key:"create",value:function(t){return t?Array.isArray(t)?f(this,v(t)):t instanceof this?t.clone():(new this).recomposeSelf(t.origin,t.rotate,t.skew,t.scale,t.translate):new this}}]),t}();function q(t,n,e){return t>=.5?e:n}function B(t,n,e){return 0===t||n===e?n:t*(e-n)+n}function D(t,n,e){var r=B(t,n,e);return r<=0?0:r}function L(t,n,e){var r=B(t,n,e);return r<=0?0:r>=1?1:r}function C(t,n,e){return 0===t?n:1===t?e:{x:B(t,n.x,e.x),y:B(t,n.y,e.y)}}function V(t,n,e){var r=function(t,n,e){return Math.round(B(t,n,e))}(t,n,e);return r<=0?0:r>=255?255:r}function G(t,n,e){return 0===t?n:1===t?e:{r:V(t,n.r,e.r),g:V(t,n.g,e.g),b:V(t,n.b,e.b),a:B(t,null==n.a?1:n.a,null==e.a?1:e.a)}}function z(t,n){for(var e=[],r=0;r<t;r++)e.push(n);return e}function Y(t,n){if(--n<=0)return t;var e=(t=Object.assign([],t)).length;do{for(var r=0;r<e;r++)t.push(t[r])}while(--n>0);return t}var $,U=function(){function t(n){r(this,t),this.list=n,this.length=n.length}return o(t,[{key:"setAttribute",value:function(t,n){for(var e=this.list,r=0;r<this.length;r++)e[r].setAttribute(t,n)}},{key:"removeAttribute",value:function(t){for(var n=this.list,e=0;e<this.length;e++)n[e].removeAttribute(t)}},{key:"style",value:function(t,n){for(var e=this.list,r=0;r<this.length;r++)e[r].style[t]=n}}]),t}(),Q=/-./g,H=function(t,n){return n.toUpperCase()};function J(t){return"function"==typeof t?t:q}function Z(t){return t?"function"==typeof t?t:Array.isArray(t)?function(t){var n=arguments.length>1&&void 0!==arguments[1]?arguments[1]:w;if(!Array.isArray(t))return n;switch(t.length){case 1:return S(t[0])||n;case 2:return S(t[0],t[1])||n;case 4:return _(t[0],t[1],t[2],t[3])||n}return n}(t,null):function(t,n){var e=arguments.length>2&&void 0!==arguments[2]?arguments[2]:w;switch(t){case"linear":return w;case"steps":return S(n.steps||1,n.jump||0)||e;case"bezier":case"cubic-bezier":return _(n.x1||0,n.y1||0,n.x2||0,n.y2||0)||e}return e}(t.type,t.value,null):null}function K(t,n,e){var r=arguments.length>3&&void 0!==arguments[3]&&arguments[3],i=n.length-1;if(t<=n[0].t)return r?[0,0,n[0].v]:n[0].v;if(t>=n[i].t)return r?[i,1,n[i].v]:n[i].v;var o,u=n[0],a=null;for(o=1;o<=i;o++){if(!(t>n[o].t)){a=n[o];break}u=n[o]}return null==a?r?[i,1,n[i].v]:n[i].v:u.t===a.t?r?[o,1,a.v]:a.v:(t=(t-u.t)/(a.t-u.t),u.e&&(t=u.e(t)),r?[o,t,e(t,u.v,a.v)]:e(t,u.v,a.v))}function W(t,n){var e=arguments.length>2&&void 0!==arguments[2]?arguments[2]:null;return t&&t.length?"function"!=typeof n?null:("function"!=typeof e&&(e=null),function(r){var i=K(r,t,n);return null!=i&&e&&(i=e(i)),i}):null}function X(t,n){return t.t-n.t}function tt(t,n,r,i,o){var u,a="@"===r[0],l="#"===r[0],s=$[r],f=q;switch(a?(u=r.substr(1),r=u.replace(Q,H)):l&&(r=r.substr(1)),e(s)){case"function":if(f=s(i,o,K,Z,r,a,n,t),l)return f;break;case"string":f=W(i,J(s));break;case"object":if((f=W(i,J(s.i),s.f))&&"function"==typeof s.u)return s.u(n,f,r,a,t)}return f?function(t,n,e){if(arguments.length>3&&void 0!==arguments[3]&&arguments[3])return t instanceof U?function(r){return t.style(n,e(r))}:function(r){return t.style[n]=e(r)};if(Array.isArray(n)){var r=n.length;return function(i){var o=e(i);if(null==o)for(var u=0;u<r;u++)t[u].removeAttribute(n);else for(var a=0;a<r;a++)t[a].setAttribute(n,o)}}return function(r){var i=e(r);null==i?t.removeAttribute(n):t.setAttribute(n,i)}}(n,r,f,a):null}function nt(t,n,r,i){if(!i||"object"!==e(i))return null;var o=null,u=null;return Array.isArray(i)?u=function(t){if(!t||!t.length)return null;for(var n=0;n<t.length;n++)t[n].e&&(t[n].e=Z(t[n].e));return t.sort(X)}(i):(u=i.keys,o=i.data||null),u?tt(t,n,r,u,o):null}function et(t,n,e){if(!e)return null;var r=[];for(var i in e)if(e.hasOwnProperty(i)){var o=nt(t,n,i,e[i]);o&&r.push(o)}return r.length?r:null}function rt(t,n){if(!n.settings.duration||n.settings.duration<0)return null;var e,r,i,o,u,a=function(t,n){if(!n)return null;var e=[];if(Array.isArray(n))for(var r=n.length,i=0;i<r;i++){var o=n[i];if(2===o.length){var u=null;if("string"==typeof o[0])u=t.getElementById(o[0]);else if(Array.isArray(o[0])){u=[];for(var a=0;a<o[0].length;a++)if("string"==typeof o[0][a]){var l=t.getElementById(o[0][a]);l&&u.push(l)}u=u.length?1===u.length?u[0]:new U(u):null}if(u){var s=et(t,u,o[1]);s&&(e=e.concat(s))}}}else for(var f in n)if(n.hasOwnProperty(f)){var c=t.getElementById(f);if(c){var h=et(t,c,n[f]);h&&(e=e.concat(h))}}return e.length?e:null}(t,n.elements);return a?(e=a,r=n.settings,i=r.duration,o=e.length,u=null,function(t,n){var a=r.iterations||1/0,l=(r.alternate&&a%2==0)^r.direction>0?i:0,s=t%i,f=1+(t-s)/i;n*=r.direction,r.alternate&&f%2==0&&(n=-n);var c=!1;if(f>a)s=l,c=!0,-1===r.fill&&(s=r.direction>0?0:i);else if(n<0&&(s=i-s),s===u)return!1;u=s;for(var h=0;h<o;h++)e[h](s);return c}):null}function it(t,n){for(var e=n.querySelectorAll("svg"),r=0;r<e.length;r++)if(e[r].id===t.root&&!e[r].svgatorAnimation)return e[r].svgatorAnimation=!0,e[r];return null}function ot(t){var n=function(t){return t.shadowRoot};return document?Array.from(t.querySelectorAll(":not("+["a","area","audio","br","canvas","circle","datalist","embed","g","head","hr","iframe","img","input","link","object","path","polygon","rect","script","source","style","svg","title","track","video"].join()+")")).filter(n).map(n):[]}function ut(t){var n=arguments.length>1&&void 0!==arguments[1]?arguments[1]:document,e=arguments.length>2&&void 0!==arguments[2]?arguments[2]:0,r=it(t,n);if(r)return r;if(e>=20)return null;for(var i=ot(n),o=0;o<i.length;o++){var u=ut(t,i[o],e+1);if(u)return u}return null}function at(t,n){if($=n,!t||!t.root||!Array.isArray(t.animations))return null;var e=ut(t);if(!e)return null;var r=t.animations.map((function(t){return rt(e,t)})).filter((function(t){return!!t}));return r.length?{svg:e,animations:r,animationSettings:t.animationSettings,options:t.options||void 0}:null}function lt(t){var n=arguments.length>1&&void 0!==arguments[1]?arguments[1]:null,e=arguments.length>2&&void 0!==arguments[2]?arguments[2]:Number,r=arguments.length>3&&void 0!==arguments[3]?arguments[3]:"undefined"!=typeof BigInt&&BigInt,i="0x"+(t.replace(/[^0-9a-fA-F]+/g,"")||27);return n&&r&&e.isSafeInteger&&!e.isSafeInteger(+i)?e(r(i))%n+n:+i}function st(t,n,e){return!t||!e||n>t.length?t:t.substring(0,n)+st(t.substring(n+1),e,e)}function ft(t){var n=arguments.length>1&&void 0!==arguments[1]?arguments[1]:27;return!t||t%n?t%n:[0,1].includes(n)?n:ft(t/n,n)}function ct(t,n,e){if(t&&t.length){var r=lt(e),i=ft(r)+5,o=st(t,ft(r,5),i);return o=o.replace(/\x7c$/g,"==").replace(/\x2f$/g,"="),o=function(t,n,e){var r=+("0x"+t.substring(0,4));t=t.substring(4);for(var i=lt(n,r)%r+e%27,o=[],u=0;u<t.length;u+=2)if("|"!==t[u]){var a=+("0x"+t[u]+t[u+1])-i;o.push(a)}else{var l=+("0x"+t.substring(u+1,u+1+4))-i;u+=3,o.push(l)}return String.fromCharCode.apply(String,o)}(o=(o=atob(o)).replace(/[\x41-\x5A]/g,""),n,r),o=JSON.parse(o)}}var ht=[{key:"alternate",def:!1},{key:"fill",def:1},{key:"iterations",def:0},{key:"direction",def:1},{key:"speed",def:1},{key:"fps",def:100}],vt=function(){function t(n,e){var i=this,o=arguments.length>2&&void 0!==arguments[2]?arguments[2]:null;r(this,t),this._id=0,this._running=!1,this._rollingBack=!1,this._animations=n,this._settings=e,(!o||o<"2022-05-02")&&delete this._settings.speed,ht.forEach((function(t){i._settings[t.key]=i._settings[t.key]||t.def})),this.duration=e.duration,this.offset=e.offset||0,this.rollbackStartOffset=0}return o(t,[{key:"alternate",get:function(){return this._settings.alternate}},{key:"fill",get:function(){return this._settings.fill}},{key:"iterations",get:function(){return this._settings.iterations}},{key:"direction",get:function(){return this._settings.direction}},{key:"speed",get:function(){return this._settings.speed}},{key:"fps",get:function(){return this._settings.fps}},{key:"maxFiniteDuration",get:function(){return this.iterations>0?this.iterations*this.duration:this.duration}},{key:"_apply",value:function(t){for(var n=arguments.length>1&&void 0!==arguments[1]?arguments[1]:{},e=this._animations,r=e.length,i=0,o=0;o<r;o++)n[o]?i++:(n[o]=e[o](t,1),n[o]&&i++);return i}},{key:"_rollback",value:function(t){var n=this,e=1/0,r=null;this.rollbackStartOffset=t,this._rollingBack=!0,this._running=!0;this._id=window.requestAnimationFrame((function i(o){if(n._rollingBack){null==r&&(r=o);var u=Math.round(t-(o-r)*n.speed);if(u>n.duration&&e!==1/0){var a=!!n.alternate&&u/n.duration%2>1,l=u%n.duration;u=(l+=a?n.duration:0)||n.duration}var s=(n.fps?1e3/n.fps:0)*n.speed,f=Math.max(0,u);f<=e-s&&(n.offset=f,e=f,n._apply(f));var c=n.iterations>0&&-1===n.fill&&u>=n.maxFiniteDuration;(u<=0||n.offset<u||c)&&n.stop(),n._id=window.requestAnimationFrame(i)}}))}},{key:"_start",value:function(){var t=this,n=arguments.length>0&&void 0!==arguments[0]?arguments[0]:0,e=-1/0,r=null,i={};this._running=!0;var o=function o(u){null==r&&(r=u);var a=Math.round((u-r)*t.speed+n),l=(t.fps?1e3/t.fps:0)*t.speed;if(a>=e+l&&!t._rollingBack&&(t.offset=a,e=a,t._apply(a,i)===t._animations.length))return void t.pause(!0);t._id=window.requestAnimationFrame(o)};this._id=window.requestAnimationFrame(o)}},{key:"_pause",value:function(){this._id&&window.cancelAnimationFrame(this._id),this._running=!1}},{key:"play",value:function(){if(!this._running)return this._rollingBack?this._rollback(this.offset):this._start(this.offset)}},{key:"stop",value:function(){this._pause(),this.offset=0,this.rollbackStartOffset=0,this._rollingBack=!1,this._apply(0)}},{key:"reachedToEnd",value:function(){return this.iterations>0&&this.offset>=this.iterations*this.duration}},{key:"restart",value:function(){var t=arguments.length>0&&void 0!==arguments[0]&&arguments[0];this.stop(t),this.play(t)}},{key:"pause",value:function(){this._pause()}},{key:"reverse",value:function(){this.direction=-this.direction}}],[{key:"build",value:function(t,n){delete t.animationSettings,t.options=ct(t.options,t.root,"5c7f360c"),t.animations.map((function(n){n.settings=ct(n.s,t.root,"5c7f360c"),delete n.s,t.animationSettings||(t.animationSettings=n.settings)}));var e=t.version;if(!(t=at(t,n)))return null;var r=t.options||{},i=new this(t.animations,t.animationSettings,e);return{el:t.svg,options:r,player:i}}},{key:"push",value:function(t){return this.build(t)}},{key:"init",value:function(){var t=this,n=window.__SVGATOR_PLAYER__&&window.__SVGATOR_PLAYER__["5c7f360c"];Array.isArray(n)&&n.splice(0).forEach((function(n){return t.build(n)}))}}]),t}();function yt(t){return p(t)+""}function gt(t){var n=arguments.length>1&&void 0!==arguments[1]?arguments[1]:" ";return t&&t.length?t.map(yt).join(n):""}function dt(t){if(!t)return"transparent";if(null==t.a||t.a>=1){var n=function(t){return 1===(t=parseInt(t).toString(16)).length?"0"+t:t},e=function(t){return t.charAt(0)===t.charAt(1)},r=n(t.r),i=n(t.g),o=n(t.b);return e(r)&&e(i)&&e(o)&&(r=r.charAt(0),i=i.charAt(0),o=o.charAt(0)),"#"+r+i+o}return"rgba("+t.r+","+t.g+","+t.b+","+t.a+")"}function pt(t){return t?"url(#"+t+")":"none"}!function(){for(var t=0,n=["ms","moz","webkit","o"],e=0;e<n.length&&!window.requestAnimationFrame;++e)window.requestAnimationFrame=window[n[e]+"RequestAnimationFrame"],window.cancelAnimationFrame=window[n[e]+"CancelAnimationFrame"]||window[n[e]+"CancelRequestAnimationFrame"];window.requestAnimationFrame||(window.requestAnimationFrame=function(n){var e=Date.now(),r=Math.max(0,16-(e-t)),i=window.setTimeout((function(){n(e+r)}),r);return t=e+r,i},window.cancelAnimationFrame=window.clearTimeout)}();var mt={f:null,i:function(t,n,e){return 0===t?n:1===t?e:{x:D(t,n.x,e.x),y:D(t,n.y,e.y)}},u:function(t,n){return function(e){var r=n(e);t.setAttribute("rx",yt(r.x)),t.setAttribute("ry",yt(r.y))}}},bt={f:null,i:function(t,n,e){return 0===t?n:1===t?e:{width:D(t,n.width,e.width),height:D(t,n.height,e.height)}},u:function(t,n){return function(e){var r=n(e);t.setAttribute("width",yt(r.width)),t.setAttribute("height",yt(r.height))}}};Object.freeze({M:2,L:2,Z:0,H:1,V:1,C:6,Q:4,T:2,S:4,A:7});var wt={},At=null;function _t(t){var n=function(){if(At)return At;if("object"!==("undefined"==typeof document?"undefined":e(document))||!document.createElementNS)return{};var t=document.createElementNS("http://www.w3.org/2000/svg","svg");return t&&t.style?(t.style.position="absolute",t.style.opacity="0.01",t.style.zIndex="-9999",t.style.left="-9999px",t.style.width="1px",t.style.height="1px",At={svg:t}):{}}().svg;if(!n)return function(t){return null};var r=document.createElementNS(n.namespaceURI,"path");r.setAttributeNS(null,"d",t),r.setAttributeNS(null,"fill","none"),r.setAttributeNS(null,"stroke","none"),n.appendChild(r);var i=r.getTotalLength();return function(t){var n=r.getPointAtLength(i*t);return{x:n.x,y:n.y}}}function xt(t){return wt[t]?wt[t]:wt[t]=_t(t)}function kt(t,n,e,r){if(!t||!r)return!1;var i=["M",t.x,t.y];if(n&&e&&(i.push("C"),i.push(n.x),i.push(n.y),i.push(e.x),i.push(e.y)),n?!e:e){var o=n||e;i.push("Q"),i.push(o.x),i.push(o.y)}return n||e||i.push("L"),i.push(r.x),i.push(r.y),i.join(" ")}function St(t,n,e,r){var i=arguments.length>4&&void 0!==arguments[4]?arguments[4]:1,o=kt(t,n,e,r),u=xt(o);try{return u(i)}catch(t){return null}}function Ot(t,n,e){return t+(n-t)*e}function jt(t,n,e){var r=arguments.length>3&&void 0!==arguments[3]&&arguments[3],i={x:Ot(t.x,n.x,e),y:Ot(t.y,n.y,e)};return r&&(i.a=Mt(t,n)),i}function Mt(t,n){return Math.atan2(n.y-t.y,n.x-t.x)}function Et(t,n,e,r){var i=1-r;return i*i*t+2*i*r*n+r*r*e}function Pt(t,n,e,r){return 2*(1-r)*(n-t)+2*r*(e-n)}function It(t,n,e,r){var i=arguments.length>4&&void 0!==arguments[4]&&arguments[4],o=St(t,n,null,e,r);return o||(o={x:Et(t.x,n.x,e.x,r),y:Et(t.y,n.y,e.y,r)}),i&&(o.a=Rt(t,n,e,r)),o}function Rt(t,n,e,r){return Math.atan2(Pt(t.y,n.y,e.y,r),Pt(t.x,n.x,e.x,r))}function Ft(t,n,e,r,i){var o=i*i;return i*o*(r-t+3*(n-e))+3*o*(t+e-2*n)+3*i*(n-t)+t}function Nt(t,n,e,r,i){var o=1-i;return 3*(o*o*(n-t)+2*o*i*(e-n)+i*i*(r-e))}function Tt(t,n,e,r,i){var o=arguments.length>5&&void 0!==arguments[5]&&arguments[5],u=St(t,n,e,r,i);return u||(u={x:Ft(t.x,n.x,e.x,r.x,i),y:Ft(t.y,n.y,e.y,r.y,i)}),o&&(u.a=qt(t,n,e,r,i)),u}function qt(t,n,e,r,i){return Math.atan2(Nt(t.y,n.y,e.y,r.y,i),Nt(t.x,n.x,e.x,r.x,i))}function Bt(t,n,e){var r=arguments.length>3&&void 0!==arguments[3]&&arguments[3];if(Lt(n)){if(Ct(e))return It(n,e.start,e,t,r)}else if(Lt(e)){if(Vt(n))return It(n,n.end,e,t,r)}else{if(Vt(n))return Ct(e)?Tt(n,n.end,e.start,e,t,r):It(n,n.end,e,t,r);if(Ct(e))return It(n,e.start,e,t,r)}return jt(n,e,t,r)}function Dt(t,n,e){var r=Bt(t,n,e,!0);return r.a=function(t){return arguments.length>1&&void 0!==arguments[1]&&arguments[1]?t+Math.PI:t}(r.a)/b,r}function Lt(t){return!t.type||"corner"===t.type}function Ct(t){return null!=t.start&&!Lt(t)}function Vt(t){return null!=t.end&&!Lt(t)}var Gt=new T;var zt={f:yt,i:B},Yt={f:yt,i:L};function $t(t,n,e){return t.map((function(t){return function(t,n,e){var r=t.v;if(!r||"g"!==r.t||r.s||!r.v||!r.r)return t;var i=e.getElementById(r.r),o=i&&i.querySelectorAll("stop")||[];return r.s=r.v.map((function(t,n){var e=o[n]&&o[n].getAttribute("offset");return{c:t,o:e=p(parseInt(e)/100)}})),delete r.v,t}(t,0,e)}))}var Ut={gt:"gradientTransform",c:{x:"cx",y:"cy"},rd:"r",f:{x:"x1",y:"y1"},to:{x:"x2",y:"y2"}};function Qt(t,n,r,i,o,u,a,l){return $t(t,0,l),n=function(t,n,e){for(var r,i,o,u=t.length-1,a={},l=0;l<=u;l++)(r=t[l]).e&&(r.e=n(r.e)),r.v&&"g"===(i=r.v).t&&i.r&&(o=e.getElementById(i.r))&&(a[i.r]={e:o,s:o.querySelectorAll("stop")});return a}(t,i,l),function(i){var o=r(i,t,Ht);if(!o)return"none";if("c"===o.t)return dt(o.v);if("g"===o.t){if(!n[o.r])return pt(o.r);var u=n[o.r];return function(t,n){for(var e=t.s,r=e.length;r<n.length;r++){var i=e[e.length-1].cloneNode();i.id=Kt(i.id),t.e.appendChild(i),e=t.s=t.e.querySelectorAll("stop")}for(var o=0,u=e.length,a=n.length-1;o<u;o++)e[o].setAttribute("stop-color",dt(n[Math.min(o,a)].c)),e[o].setAttribute("offset",n[Math.min(o,a)].o)}(u,o.s),Object.keys(Ut).forEach((function(t){if(void 0!==o[t])if("object"!==e(Ut[t])){var n,r="gt"===t?(n=o[t],Array.isArray(n)?"matrix("+n.join(" ")+")":""):o[t],i=Ut[t];u.e.setAttribute(i,r)}else Object.keys(Ut[t]).forEach((function(n){if(void 0!==o[t][n]){var e=o[t][n],r=Ut[t][n];u.e.setAttribute(r,e)}}))})),pt(o.r)}return"none"}}function Ht(t,e,r){if(0===t)return e;if(1===t)return r;if(e&&r){var i=e.t;if(i===r.t)switch(e.t){case"c":return{t:i,v:G(t,e.v,r.v)};case"g":if(e.r===r.r){var o={t:i,s:Jt(t,e.s,r.s),r:e.r};return e.gt&&r.gt&&(o.gt=function(t,n,e){var r=n.length;if(r!==e.length)return q(t,n,e);for(var i=new Array(r),o=0;o<r;o++)i[o]=B(t,n[o],e[o]);return i}(t,e.gt,r.gt)),e.c?(o.c=C(t,e.c,r.c),o.rd=D(t,e.rd,r.rd)):e.f&&(o.f=C(t,e.f,r.f),o.to=C(t,e.to,r.to)),o}}if("c"===e.t&&"g"===r.t||"c"===r.t&&"g"===e.t){var u="c"===e.t?e:r,a="g"===e.t?n({},e):n({},r),l=a.s.map((function(t){return{c:u.v,o:t.o}}));return a.s="c"===e.t?Jt(t,l,a.s):Jt(t,a.s,l),a}}return q(t,e,r)}function Jt(t,n,e){if(n.length===e.length)return n.map((function(n,r){return Zt(t,n,e[r])}));for(var r=Math.max(n.length,e.length),i=[],o=0;o<r;o++){var u=Zt(t,n[Math.min(o,n.length-1)],e[Math.min(o,e.length-1)]);i.push(u)}return i}function Zt(t,n,e){return{o:L(t,n.o,e.o||0),c:G(t,n.c,e.c||{})}}function Kt(t){return t.replace(/-fill-([0-9]+)$/,(function(t,n){return"-fill-"+(+n+1)}))}var Wt={fill:Qt,"fill-opacity":Yt,stroke:Qt,"stroke-opacity":Yt,"stroke-width":zt,"stroke-dashoffset":{f:yt,i:B},"stroke-dasharray":{f:function(t){var n=arguments.length>1&&void 0!==arguments[1]?arguments[1]:" ";return t&&t.length>0&&(t=t.map((function(t){return p(t,4)}))),gt(t,n)},i:function(t,n,e){var r,i,o,u=n.length,a=e.length;if(u!==a)if(0===u)n=z(u=a,0);else if(0===a)a=u,e=z(u,0);else{var l=(o=(r=u)*(i=a)/function(t,n){for(var e;n;)e=n,n=t%n,t=e;return t||1}(r,i))<0?-o:o;n=Y(n,Math.floor(l/u)),e=Y(e,Math.floor(l/a)),u=a=l}for(var s=[],f=0;f<u;f++)s.push(p(D(t,n[f],e[f])));return s}},opacity:Yt,transform:function(t,n,r,i){if(!(t=function(t,n){if(!t||"object"!==e(t))return null;var r=!1;for(var i in t)t.hasOwnProperty(i)&&(t[i]&&t[i].length?(t[i].forEach((function(t){t.e&&(t.e=n(t.e))})),r=!0):delete t[i]);return r?t:null}(t,i)))return null;var o=function(e,i,o){var u=arguments.length>3&&void 0!==arguments[3]?arguments[3]:null;return t[e]?r(i,t[e],o):n&&n[e]?n[e]:u};return n&&n.a&&t.o?function(n){var e=r(n,t.o,Dt);return Gt.recomposeSelf(e,o("r",n,B,0)+e.a,o("k",n,C),o("s",n,C),o("t",n,C)).toString()}:function(t){return Gt.recomposeSelf(o("o",t,Bt,null),o("r",t,B,0),o("k",t,C),o("s",t,C),o("t",t,C)).toString()}},r:zt,"#size":bt,"#radius":mt,_:function(t,n){if(Array.isArray(t))for(var e=0;e<t.length;e++)this[t[e]]=n;else this[t]=n}},Xt=function(t){!function(t,n){if("function"!=typeof n&&null!==n)throw new TypeError("Super expression must either be null or a function");t.prototype=Object.create(n&&n.prototype,{constructor:{value:t,writable:!0,configurable:!0}}),n&&l(t,n)}(u,t);var n,e,i=(n=u,e=s(),function(){var t,r=a(n);if(e){var i=a(this).constructor;t=Reflect.construct(r,arguments,i)}else t=r.apply(this,arguments);return c(this,t)});function u(){return r(this,u),i.apply(this,arguments)}return o(u,null,[{key:"build",value:function(t){var n=h(a(u),"build",this).call(this,t,Wt);if(!n)return null;n.el,n.options,function(t,n,e){t.play()}(n.player)}}]),u}(vt);return Xt.init(),Xt}));
(function(s,i,o,w,d,a,b){w[o]=w[o]||{};w[o][s]=w[o][s]||[];w[o][s].push(i);})('5c7f360c',{"root":"eszEqluZBoI1","version":"2022-05-04","animations":[{"elements":{"eszEqluZBoI142":{"transform":{"data":{"t":{"x":-263.978999,"y":-188.410003}},"keys":{"o":[{"t":0,"v":{"x":263.979,"y":188.410004,"type":"corner"},"e":[0.445,0.05,0.55,0.95]},{"t":500,"v":{"x":260,"y":188.410004,"type":"corner"},"e":[0.445,0.05,0.55,0.95]},{"t":1000,"v":{"x":263.979,"y":188.410004,"type":"corner"},"e":[0.445,0.05,0.55,0.95]},{"t":1500,"v":{"x":260,"y":188.410004,"type":"corner"},"e":[0.445,0.05,0.55,0.95]},{"t":2000,"v":{"x":263.979,"y":188.410004,"type":"corner"},"e":[0.445,0.05,0.55,0.95]},{"t":2500,"v":{"x":260,"y":188.410004,"type":"corner"},"e":[0.445,0.05,0.55,0.95]},{"t":3000,"v":{"x":265,"y":188.410004,"type":"corner"}}]}}},"eszEqluZBoI146":{"transform":{"data":{"o":{"x":242.365479,"y":184.720005,"type":"corner"},"t":{"x":-242.365479,"y":-184.720005}},"keys":{"r":[{"t":0,"v":0},{"t":500,"v":2},{"t":1000,"v":0},{"t":1500,"v":1},{"t":2000,"v":0},{"t":2500,"v":2},{"t":3000,"v":0}]}}},"eszEqluZBoI151":{"transform":{"data":{"o":{"x":162.675,"y":177.65,"type":"corner"},"t":{"x":-162.675,"y":-177.649999}},"keys":{"r":[{"t":0,"v":0},{"t":500,"v":10},{"t":1000,"v":-8},{"t":1500,"v":2},{"t":2000,"v":-10},{"t":2500,"v":3},{"t":3000,"v":0}]}}},"eszEqluZBoI154":{"transform":{"data":{"t":{"x":-186.089111,"y":-81.17}},"keys":{"o":[{"t":0,"v":{"x":186.089112,"y":82.170384,"type":"corner"}},{"t":500,"v":{"x":186.089112,"y":83.17,"type":"corner"}},{"t":1000,"v":{"x":186.089112,"y":83.17,"type":"corner"}},{"t":1500,"v":{"x":186.089112,"y":82.17,"type":"corner"}},{"t":2000,"v":{"x":186.089112,"y":81.17,"type":"corner"}},{"t":2500,"v":{"x":186.089112,"y":81.17,"type":"corner"}},{"t":3000,"v":{"x":186.089112,"y":82.17,"type":"corner"}}],"r":[{"t":0,"v":0,"e":[0.42,0,0.58,1]},{"t":500,"v":-2,"e":[0.42,0,0.58,1]},{"t":1000,"v":1,"e":[0.42,0,0.58,1]},{"t":1500,"v":0,"e":[0.42,0,0.58,1]},{"t":2000,"v":1,"e":[0.42,0,0.58,1]},{"t":2500,"v":0,"e":[0.42,0,0.58,1]},{"t":3000,"v":0}]}}}},"s":"MODA1ZDhiMzI3NDg1Q0Sk4MjcxODQ3OTdmN2UMzMjRhNDM0MDQwNDAzQYzMyNzQ3OTgyNzU3MEzg0Nzk3Zkw3ZTMyNGHE0MTNjMzJRNzk4NDcF1ODI3MTg0Nzk3ZjdlMODMzMjRhNDAzY1czMOjc2Nzk3YzdjMzI0YTBQxM2MzMkk3MTdjODQV3NTgyN2U3MTg0NzUzIMjRhVzc2NzFYN2M4MDzc1M2NTMzI4MzgwNzDU3NVI3NDMyNGE0MTNOjMzI3NjgwQzgzMzI0GYTQxNDA0MDhk"}],"options":"MIDAxMDg4MmY4MDgxNmIVXN2Y4MUEyZjQ3MmYX3OTdjNmU3MTJmOGE/Y"},'__SVGATOR_PLAYER__',window,document)
]]></script>
</svg>
